<svg width="50" height="50" viewBox="0 0 50 50" fill="none" xmlns="http://www.w3.org/2000/svg">
<g clip-path="url(#clip0_1517_60604)">
<path d="M21.3487 0.775032L25 0.501402L28.6513 0.775032L32.2211 1.58981L35.6295 2.92753L38.8006 4.75831L41.6633 7.04125L44.1538 9.72538L46.2164 12.7507L47.8051 16.0497L48.8844 19.5486L49.4301 23.1692V26.8308L48.8844 30.4514L47.8051 33.9503L46.2164 37.2493L44.1538 40.2746L41.6633 42.9587L38.8006 45.2417L35.6295 47.0725L32.2211 48.4102L28.6513 49.225L25 49.4986L21.3487 49.225L17.7789 48.4102L14.3705 47.0725L11.1994 45.2417L8.33673 42.9587L5.84622 40.2746L3.7836 37.2493L2.1949 33.9503L1.11563 30.4515L0.569904 26.8308V23.1692L1.11563 19.5485L2.1949 16.0497L3.78359 12.7507L5.84622 9.72538L8.33672 7.04126L11.1994 4.75831L14.3705 2.92753L17.7789 1.58981L21.3487 0.775032Z" fill="url(#paint0_linear_1517_60604)" stroke="#222B44"/>
<mask id="mask0_1517_60604" style="mask-type:alpha" maskUnits="userSpaceOnUse" x="0" y="0" width="50" height="50">
<path d="M21.3487 0.775032L25 0.501402L28.6513 0.775032L32.2211 1.58981L35.6295 2.92753L38.8006 4.75831L41.6633 7.04125L44.1538 9.72538L46.2164 12.7507L47.8051 16.0497L48.8844 19.5486L49.4301 23.1692V26.8308L48.8844 30.4514L47.8051 33.9503L46.2164 37.2493L44.1538 40.2746L41.6633 42.9587L38.8006 45.2417L35.6295 47.0725L32.2211 48.4102L28.6513 49.225L25 49.4986L21.3487 49.225L17.7789 48.4102L14.3705 47.0725L11.1994 45.2417L8.33673 42.9587L5.84622 40.2746L3.7836 37.2493L2.1949 33.9503L1.11563 30.4515L0.569904 26.8308V23.1692L1.11563 19.5485L2.1949 16.0497L3.78359 12.7507L5.84622 9.72538L8.33672 7.04126L11.1994 4.75831L14.3705 2.92753L17.7789 1.58981L21.3487 0.775032Z" fill="#121825" stroke="#222B44"/>
</mask>
<g mask="url(#mask0_1517_60604)">
<path d="M35.1596 23.8796V20.7485C35.1596 20.1902 34.9217 19.6548 34.4983 19.26C34.0749 18.8653 33.5006 18.6435 32.9018 18.6435H26.1286V17.2626C26.4729 16.9742 26.693 16.5596 26.693 16.0944C26.693 15.6757 26.5146 15.2741 26.197 14.978C25.8795 14.682 25.4488 14.5156 24.9997 14.5156C24.5506 14.5156 24.1199 14.682 23.8023 14.978C23.4848 15.2741 23.3064 15.6757 23.3064 16.0944C23.3064 16.5596 23.5265 16.9742 23.8708 17.2626V18.6435H17.0976C16.4988 18.6435 15.9245 18.8653 15.5011 19.26C15.0777 19.6548 14.8398 20.1902 14.8398 20.7485V23.9039L14.7585 23.9091C14.4739 23.928 14.2076 24.0468 14.0132 24.2415C13.8188 24.4362 13.7108 24.6924 13.7109 24.9584V27.0634C13.7109 27.3426 13.8299 27.6103 14.0416 27.8077C14.2533 28.005 14.5404 28.1159 14.8398 28.1159V33.3784C14.8398 33.9367 15.0777 34.4721 15.5011 34.8668C15.9245 35.2616 16.4988 35.4834 17.0976 35.4834H32.9018C33.5006 35.4834 34.0749 35.2616 34.4983 34.8668C34.9217 34.4721 35.1596 33.9367 35.1596 33.3784V28.1159C35.459 28.1159 35.7461 28.005 35.9578 27.8077C36.1695 27.6103 36.2884 27.3426 36.2884 27.0634V25.0237C36.3015 24.8604 36.2737 24.6964 36.2072 24.5448C35.9791 24.0312 35.4903 23.9081 35.1596 23.8796ZM19.3553 24.9584C19.3553 23.7965 20.1139 22.8535 21.0486 22.8535C21.9833 22.8535 22.7419 23.7965 22.7419 24.9584C22.7419 26.1204 21.9833 27.0634 21.0486 27.0634C20.1139 27.0634 19.3553 26.1204 19.3553 24.9584ZM29.5129 31.2734C28.3829 31.2702 20.4842 31.2734 20.4842 31.2734V29.1684C20.4842 29.1684 28.3874 29.1663 29.5174 29.1684L29.5129 31.2734ZM28.9507 27.0634C28.016 27.0634 27.2574 26.1204 27.2574 24.9584C27.2574 23.7965 28.016 22.8535 28.9507 22.8535C29.8855 22.8535 30.6441 23.7965 30.6441 24.9584C30.6441 26.1204 29.8855 27.0634 28.9507 27.0634Z" fill="white"/>
<g filter="url(#filter0_f_1517_60604)">
<path d="M27.4201 50.5205C27.4201 62.9188 19.3385 68.5495 -12.1118 68.5495C-43.5621 68.5495 -71.7734 55.9338 -71.7734 43.5354C-71.7734 31.1371 -35.0786 33.0656 -3.62827 33.0656C18.1459 43.5354 27.4201 50.5205 27.4201 50.5205Z" fill="#017BFF"/>
</g>
<g filter="url(#filter1_f_1517_60604)">
<path d="M43.4208 -12.0579C57.8396 -13.8305 63.5452 -13.5228 64.7328 -3.90475C60.2311 5.52998 62.4026 11.9363 47.9838 13.709C44.8476 -1.31859 16.5178 4.16181 16.129 -1.21039C14.9414 -10.8284 43.4208 -12.0579 43.4208 -12.0579Z" fill="#DB01FF"/>
</g>
</g>
</g>
<defs>
<filter id="filter0_f_1517_60604" x="-87.7734" y="16.957" width="131.194" height="67.5928" filterUnits="userSpaceOnUse" color-interpolation-filters="sRGB">
<feFlood flood-opacity="0" result="BackgroundImageFix"/>
<feBlend mode="normal" in="SourceGraphic" in2="BackgroundImageFix" result="shape"/>
<feGaussianBlur stdDeviation="8" result="effect1_foregroundBlur_1517_60604"/>
</filter>
<filter id="filter1_f_1517_60604" x="0.0927734" y="-28.8994" width="80.64" height="58.6084" filterUnits="userSpaceOnUse" color-interpolation-filters="sRGB">
<feFlood flood-opacity="0" result="BackgroundImageFix"/>
<feBlend mode="normal" in="SourceGraphic" in2="BackgroundImageFix" result="shape"/>
<feGaussianBlur stdDeviation="8" result="effect1_foregroundBlur_1517_60604"/>
</filter>
<linearGradient id="paint0_linear_1517_60604" x1="25" y1="0" x2="25" y2="50" gradientUnits="userSpaceOnUse">
<stop offset="0.15256" stop-color="#121825"/>
<stop offset="1" stop-color="#051744"/>
</linearGradient>
<clipPath id="clip0_1517_60604">
<rect width="50" height="50" fill="white"/>
</clipPath>
</defs>
</svg>
