<svg width="1919" height="902" viewBox="0 0 1919 902" fill="none" xmlns="http://www.w3.org/2000/svg">
<path d="M1 1202H0V0H1V1202ZM0.00129347 1199.52H0.998707V2.48243H0.00129347V1199.52Z" fill="url(#paint0_linear_40_454)"/>
<path d="M1918.76 1139.55H1.24173V1142.03H1918.76V1139.55Z" fill="url(#paint1_linear_40_454)"/>
<path d="M1918.76 1079.57H1.24173V1082.05H1918.76V1079.57Z" fill="url(#paint2_linear_40_454)"/>
<path d="M1918.76 1019.59H1.24173V1022.08H1918.76V1019.59Z" fill="url(#paint3_linear_40_454)"/>
<path d="M1918.76 959.619H1.24173V962.101H1918.76V959.619Z" fill="url(#paint4_linear_40_454)"/>
<path d="M1918.76 899.643H1.24173V900.643H1918.76V899.643Z" fill="url(#paint5_linear_40_454)"/>
<path d="M1918.76 839.666H1.24173V840.666H1918.76V839.666Z" fill="url(#paint6_linear_40_454)"/>
<path d="M1918.76 779.69H1.24173V780.69H1918.76V779.69Z" fill="url(#paint7_linear_40_454)"/>
<path d="M1918.76 719.714H1.24173V720.714H1918.76V719.714Z" fill="url(#paint8_linear_40_454)"/>
<path d="M1918.76 659.738H1.24173V660.738H1918.76V659.738Z" fill="url(#paint9_linear_40_454)"/>
<path d="M1918.76 599.762H1.24173V600.762H1918.76V599.762Z" fill="url(#paint10_linear_40_454)"/>
<path d="M1918.76 539.786H1.24173V540.786H1918.76V539.786Z" fill="url(#paint11_linear_40_454)"/>
<path d="M1918.76 479.809H1.24173V480.809H1918.76V479.809Z" fill="url(#paint12_linear_40_454)"/>
<path d="M1918.76 419.833H1.24173V420.833H1918.76V419.833Z" fill="url(#paint13_linear_40_454)"/>
<path d="M1918.76 359.857H1.24173V360.857H1918.76V359.857Z" fill="url(#paint14_linear_40_454)"/>
<path d="M1918.76 299.881H1.24173V300.881H1918.76V299.881Z" fill="url(#paint15_linear_40_454)"/>
<path d="M1918.76 239.905H1.24173V240.905H1918.76V239.905Z" fill="url(#paint16_linear_40_454)"/>
<path d="M1918.76 179.929H1.24173V180.929H1918.76V179.929Z" fill="url(#paint17_linear_40_454)"/>
<path d="M1918.76 119.952H1.24173V120.952H1918.76V119.952Z" fill="url(#paint18_linear_40_454)"/>
<path d="M1918.76 59.9762H1.24173V60.9762H1918.76V59.9762Z" fill="url(#paint19_linear_40_454)"/>
<path d="M1860.41 1.24121H1859.41V1200.76H1860.41V1.24121Z" fill="url(#paint20_linear_40_454)"/>
<path d="M1802.3 1.24121H1801.3V1200.76H1802.3V1.24121Z" fill="url(#paint21_linear_40_454)"/>
<path d="M1744.2 1.24121H1743.2V1200.76H1744.2V1.24121Z" fill="url(#paint22_linear_40_454)"/>
<path d="M1686.09 1.24121H1685.09V1200.76H1686.09V1.24121Z" fill="url(#paint23_linear_40_454)"/>
<path d="M1627.98 1.24121H1626.98V1200.76H1627.98V1.24121Z" fill="url(#paint24_linear_40_454)"/>
<path d="M1569.87 1.24121H1568.87V1200.76H1569.87V1.24121Z" fill="url(#paint25_linear_40_454)"/>
<path d="M1511.77 1.24121H1510.77V1200.76H1511.77V1.24121Z" fill="url(#paint26_linear_40_454)"/>
<path d="M1453.66 1.24121H1452.66V1200.76H1453.66V1.24121Z" fill="url(#paint27_linear_40_454)"/>
<path d="M1395.56 1.24121H1394.56V1200.76H1395.56V1.24121Z" fill="url(#paint28_linear_40_454)"/>
<path d="M1337.45 1.24121H1336.45V1200.76H1337.45V1.24121Z" fill="url(#paint29_linear_40_454)"/>
<path d="M1279.34 1.24121H1278.34V1200.76H1279.34V1.24121Z" fill="url(#paint30_linear_40_454)"/>
<path d="M1221.24 1.24121H1220.24V1200.76H1221.24V1.24121Z" fill="url(#paint31_linear_40_454)"/>
<path d="M1163.13 1.24121H1162.13V1200.76H1163.13V1.24121Z" fill="url(#paint32_linear_40_454)"/>
<path d="M1105.03 1.24121H1104.03V1200.76H1105.03V1.24121Z" fill="url(#paint33_linear_40_454)"/>
<path d="M1046.92 1.24121H1045.92V1200.76H1046.92V1.24121Z" fill="url(#paint34_linear_40_454)"/>
<path d="M988.814 1.24121H987.814V1200.76H988.814V1.24121Z" fill="url(#paint35_linear_40_454)"/>
<path d="M930.702 1.24121H929.702V1200.76H930.702V1.24121Z" fill="url(#paint36_linear_40_454)"/>
<path d="M872.596 1.24121H871.596V1200.76H872.596V1.24121Z" fill="url(#paint37_linear_40_454)"/>
<path d="M814.49 1.24121H813.49V1200.76H814.49V1.24121Z" fill="url(#paint38_linear_40_454)"/>
<path d="M756.384 1.24121H755.384V1200.76H756.384V1.24121Z" fill="url(#paint39_linear_40_454)"/>
<path d="M698.278 1.24121H697.278V1200.76H698.278V1.24121Z" fill="url(#paint40_linear_40_454)"/>
<path d="M640.172 1.24121H639.172V1200.76H640.172V1.24121Z" fill="url(#paint41_linear_40_454)"/>
<path d="M582.066 1.24121H581.066V1200.76H582.066V1.24121Z" fill="url(#paint42_linear_40_454)"/>
<path d="M523.96 1.24121H522.96V1200.76H523.96V1.24121Z" fill="url(#paint43_linear_40_454)"/>
<path d="M465.854 1.24121H464.854V1200.76H465.854V1.24121Z" fill="url(#paint44_linear_40_454)"/>
<path d="M407.748 1.24121H406.748V1200.76H407.748V1.24121Z" fill="url(#paint45_linear_40_454)"/>
<path d="M349.642 1.24121H348.642V1200.76H349.642V1.24121Z" fill="url(#paint46_linear_40_454)"/>
<path d="M291.536 1.24121H290.536V1200.76H291.536V1.24121Z" fill="url(#paint47_linear_40_454)"/>
<path d="M233.43 1.24121H232.43V1200.76H233.43V1.24121Z" fill="url(#paint48_linear_40_454)"/>
<path d="M175.318 1.24121H174.318V1200.76H175.318V1.24121Z" fill="url(#paint49_linear_40_454)"/>
<path d="M117.212 1.24121H116.212V1200.76H117.212V1.24121Z" fill="url(#paint50_linear_40_454)"/>
<path d="M59.106 1.24121H58.106V1200.76H59.106V1.24121Z" fill="url(#paint51_linear_40_454)"/>
<defs>
<linearGradient id="paint0_linear_40_454" x1="959.379" y1="0" x2="959.379" y2="1202" gradientUnits="userSpaceOnUse">
<stop stop-color="#0F2141" stop-opacity="0"/>
<stop offset="0.415577" stop-color="#27519B"/>
<stop offset="0.940321" stop-color="#0F2141" stop-opacity="0"/>
</linearGradient>
<linearGradient id="paint1_linear_40_454" x1="959.379" y1="0" x2="959.379" y2="1202" gradientUnits="userSpaceOnUse">
<stop stop-color="#0F2141" stop-opacity="0"/>
<stop offset="0.415577" stop-color="#27519B"/>
<stop offset="0.940321" stop-color="#0F2141" stop-opacity="0"/>
</linearGradient>
<linearGradient id="paint2_linear_40_454" x1="959.379" y1="0" x2="959.379" y2="1202" gradientUnits="userSpaceOnUse">
<stop stop-color="#0F2141" stop-opacity="0"/>
<stop offset="0.415577" stop-color="#27519B"/>
<stop offset="0.940321" stop-color="#0F2141" stop-opacity="0"/>
</linearGradient>
<linearGradient id="paint3_linear_40_454" x1="959.379" y1="0" x2="959.379" y2="1202" gradientUnits="userSpaceOnUse">
<stop stop-color="#0F2141" stop-opacity="0"/>
<stop offset="0.415577" stop-color="#27519B"/>
<stop offset="0.940321" stop-color="#0F2141" stop-opacity="0"/>
</linearGradient>
<linearGradient id="paint4_linear_40_454" x1="959.379" y1="0" x2="959.379" y2="1202" gradientUnits="userSpaceOnUse">
<stop stop-color="#0F2141" stop-opacity="0"/>
<stop offset="0.415577" stop-color="#27519B"/>
<stop offset="0.940321" stop-color="#0F2141" stop-opacity="0"/>
</linearGradient>
<linearGradient id="paint5_linear_40_454" x1="959.379" y1="0" x2="959.379" y2="1202" gradientUnits="userSpaceOnUse">
<stop stop-color="#0F2141" stop-opacity="0"/>
<stop offset="0.415577" stop-color="#27519B"/>
<stop offset="0.940321" stop-color="#0F2141" stop-opacity="0"/>
</linearGradient>
<linearGradient id="paint6_linear_40_454" x1="959.379" y1="0" x2="959.379" y2="1202" gradientUnits="userSpaceOnUse">
<stop stop-color="#0F2141" stop-opacity="0"/>
<stop offset="0.415577" stop-color="#27519B"/>
<stop offset="0.940321" stop-color="#0F2141" stop-opacity="0"/>
</linearGradient>
<linearGradient id="paint7_linear_40_454" x1="959.379" y1="0" x2="959.379" y2="1202" gradientUnits="userSpaceOnUse">
<stop stop-color="#0F2141" stop-opacity="0"/>
<stop offset="0.415577" stop-color="#27519B"/>
<stop offset="0.940321" stop-color="#0F2141" stop-opacity="0"/>
</linearGradient>
<linearGradient id="paint8_linear_40_454" x1="959.379" y1="0" x2="959.379" y2="1202" gradientUnits="userSpaceOnUse">
<stop stop-color="#0F2141" stop-opacity="0"/>
<stop offset="0.415577" stop-color="#27519B"/>
<stop offset="0.940321" stop-color="#0F2141" stop-opacity="0"/>
</linearGradient>
<linearGradient id="paint9_linear_40_454" x1="959.379" y1="0" x2="959.379" y2="1202" gradientUnits="userSpaceOnUse">
<stop stop-color="#0F2141" stop-opacity="0"/>
<stop offset="0.415577" stop-color="#27519B"/>
<stop offset="0.940321" stop-color="#0F2141" stop-opacity="0"/>
</linearGradient>
<linearGradient id="paint10_linear_40_454" x1="959.379" y1="0" x2="959.379" y2="1202" gradientUnits="userSpaceOnUse">
<stop stop-color="#0F2141" stop-opacity="0"/>
<stop offset="0.415577" stop-color="#27519B"/>
<stop offset="0.940321" stop-color="#0F2141" stop-opacity="0"/>
</linearGradient>
<linearGradient id="paint11_linear_40_454" x1="959.379" y1="0" x2="959.379" y2="1202" gradientUnits="userSpaceOnUse">
<stop stop-color="#0F2141" stop-opacity="0"/>
<stop offset="0.415577" stop-color="#27519B"/>
<stop offset="0.940321" stop-color="#0F2141" stop-opacity="0"/>
</linearGradient>
<linearGradient id="paint12_linear_40_454" x1="959.379" y1="0" x2="959.379" y2="1202" gradientUnits="userSpaceOnUse">
<stop stop-color="#0F2141" stop-opacity="0"/>
<stop offset="0.415577" stop-color="#27519B"/>
<stop offset="0.940321" stop-color="#0F2141" stop-opacity="0"/>
</linearGradient>
<linearGradient id="paint13_linear_40_454" x1="959.379" y1="0" x2="959.379" y2="1202" gradientUnits="userSpaceOnUse">
<stop stop-color="#0F2141" stop-opacity="0"/>
<stop offset="0.415577" stop-color="#27519B"/>
<stop offset="0.940321" stop-color="#0F2141" stop-opacity="0"/>
</linearGradient>
<linearGradient id="paint14_linear_40_454" x1="959.379" y1="0" x2="959.379" y2="1202" gradientUnits="userSpaceOnUse">
<stop stop-color="#0F2141" stop-opacity="0"/>
<stop offset="0.415577" stop-color="#27519B"/>
<stop offset="0.940321" stop-color="#0F2141" stop-opacity="0"/>
</linearGradient>
<linearGradient id="paint15_linear_40_454" x1="959.379" y1="0" x2="959.379" y2="1202" gradientUnits="userSpaceOnUse">
<stop stop-color="#0F2141" stop-opacity="0"/>
<stop offset="0.415577" stop-color="#27519B"/>
<stop offset="0.940321" stop-color="#0F2141" stop-opacity="0"/>
</linearGradient>
<linearGradient id="paint16_linear_40_454" x1="959.379" y1="0" x2="959.379" y2="1202" gradientUnits="userSpaceOnUse">
<stop stop-color="#0F2141" stop-opacity="0"/>
<stop offset="0.415577" stop-color="#27519B"/>
<stop offset="0.940321" stop-color="#0F2141" stop-opacity="0"/>
</linearGradient>
<linearGradient id="paint17_linear_40_454" x1="959.379" y1="0" x2="959.379" y2="1202" gradientUnits="userSpaceOnUse">
<stop stop-color="#0F2141" stop-opacity="0"/>
<stop offset="0.415577" stop-color="#27519B"/>
<stop offset="0.940321" stop-color="#0F2141" stop-opacity="0"/>
</linearGradient>
<linearGradient id="paint18_linear_40_454" x1="959.379" y1="0" x2="959.379" y2="1202" gradientUnits="userSpaceOnUse">
<stop stop-color="#0F2141" stop-opacity="0"/>
<stop offset="0.415577" stop-color="#27519B"/>
<stop offset="0.940321" stop-color="#0F2141" stop-opacity="0"/>
</linearGradient>
<linearGradient id="paint19_linear_40_454" x1="959.379" y1="0" x2="959.379" y2="1202" gradientUnits="userSpaceOnUse">
<stop stop-color="#0F2141" stop-opacity="0"/>
<stop offset="0.415577" stop-color="#27519B"/>
<stop offset="0.940321" stop-color="#0F2141" stop-opacity="0"/>
</linearGradient>
<linearGradient id="paint20_linear_40_454" x1="959.379" y1="0" x2="959.379" y2="1202" gradientUnits="userSpaceOnUse">
<stop stop-color="#0F2141" stop-opacity="0"/>
<stop offset="0.415577" stop-color="#27519B"/>
<stop offset="0.940321" stop-color="#0F2141" stop-opacity="0"/>
</linearGradient>
<linearGradient id="paint21_linear_40_454" x1="959.379" y1="0" x2="959.379" y2="1202" gradientUnits="userSpaceOnUse">
<stop stop-color="#0F2141" stop-opacity="0"/>
<stop offset="0.415577" stop-color="#27519B"/>
<stop offset="0.940321" stop-color="#0F2141" stop-opacity="0"/>
</linearGradient>
<linearGradient id="paint22_linear_40_454" x1="959.379" y1="0" x2="959.379" y2="1202" gradientUnits="userSpaceOnUse">
<stop stop-color="#0F2141" stop-opacity="0"/>
<stop offset="0.415577" stop-color="#27519B"/>
<stop offset="0.940321" stop-color="#0F2141" stop-opacity="0"/>
</linearGradient>
<linearGradient id="paint23_linear_40_454" x1="959.379" y1="0" x2="959.379" y2="1202" gradientUnits="userSpaceOnUse">
<stop stop-color="#0F2141" stop-opacity="0"/>
<stop offset="0.415577" stop-color="#27519B"/>
<stop offset="0.940321" stop-color="#0F2141" stop-opacity="0"/>
</linearGradient>
<linearGradient id="paint24_linear_40_454" x1="959.379" y1="0" x2="959.379" y2="1202" gradientUnits="userSpaceOnUse">
<stop stop-color="#0F2141" stop-opacity="0"/>
<stop offset="0.415577" stop-color="#27519B"/>
<stop offset="0.940321" stop-color="#0F2141" stop-opacity="0"/>
</linearGradient>
<linearGradient id="paint25_linear_40_454" x1="959.379" y1="0" x2="959.379" y2="1202" gradientUnits="userSpaceOnUse">
<stop stop-color="#0F2141" stop-opacity="0"/>
<stop offset="0.415577" stop-color="#27519B"/>
<stop offset="0.940321" stop-color="#0F2141" stop-opacity="0"/>
</linearGradient>
<linearGradient id="paint26_linear_40_454" x1="959.379" y1="0" x2="959.379" y2="1202" gradientUnits="userSpaceOnUse">
<stop stop-color="#0F2141" stop-opacity="0"/>
<stop offset="0.415577" stop-color="#27519B"/>
<stop offset="0.940321" stop-color="#0F2141" stop-opacity="0"/>
</linearGradient>
<linearGradient id="paint27_linear_40_454" x1="959.379" y1="0" x2="959.379" y2="1202" gradientUnits="userSpaceOnUse">
<stop stop-color="#0F2141" stop-opacity="0"/>
<stop offset="0.415577" stop-color="#27519B"/>
<stop offset="0.940321" stop-color="#0F2141" stop-opacity="0"/>
</linearGradient>
<linearGradient id="paint28_linear_40_454" x1="959.379" y1="0" x2="959.379" y2="1202" gradientUnits="userSpaceOnUse">
<stop stop-color="#0F2141" stop-opacity="0"/>
<stop offset="0.415577" stop-color="#27519B"/>
<stop offset="0.940321" stop-color="#0F2141" stop-opacity="0"/>
</linearGradient>
<linearGradient id="paint29_linear_40_454" x1="959.379" y1="0" x2="959.379" y2="1202" gradientUnits="userSpaceOnUse">
<stop stop-color="#0F2141" stop-opacity="0"/>
<stop offset="0.415577" stop-color="#27519B"/>
<stop offset="0.940321" stop-color="#0F2141" stop-opacity="0"/>
</linearGradient>
<linearGradient id="paint30_linear_40_454" x1="959.379" y1="0" x2="959.379" y2="1202" gradientUnits="userSpaceOnUse">
<stop stop-color="#0F2141" stop-opacity="0"/>
<stop offset="0.415577" stop-color="#27519B"/>
<stop offset="0.940321" stop-color="#0F2141" stop-opacity="0"/>
</linearGradient>
<linearGradient id="paint31_linear_40_454" x1="959.379" y1="0" x2="959.379" y2="1202" gradientUnits="userSpaceOnUse">
<stop stop-color="#0F2141" stop-opacity="0"/>
<stop offset="0.415577" stop-color="#27519B"/>
<stop offset="0.940321" stop-color="#0F2141" stop-opacity="0"/>
</linearGradient>
<linearGradient id="paint32_linear_40_454" x1="959.379" y1="0" x2="959.379" y2="1202" gradientUnits="userSpaceOnUse">
<stop stop-color="#0F2141" stop-opacity="0"/>
<stop offset="0.415577" stop-color="#27519B"/>
<stop offset="0.940321" stop-color="#0F2141" stop-opacity="0"/>
</linearGradient>
<linearGradient id="paint33_linear_40_454" x1="959.379" y1="0" x2="959.379" y2="1202" gradientUnits="userSpaceOnUse">
<stop stop-color="#0F2141" stop-opacity="0"/>
<stop offset="0.415577" stop-color="#27519B"/>
<stop offset="0.940321" stop-color="#0F2141" stop-opacity="0"/>
</linearGradient>
<linearGradient id="paint34_linear_40_454" x1="959.379" y1="0" x2="959.379" y2="1202" gradientUnits="userSpaceOnUse">
<stop stop-color="#0F2141" stop-opacity="0"/>
<stop offset="0.415577" stop-color="#27519B"/>
<stop offset="0.940321" stop-color="#0F2141" stop-opacity="0"/>
</linearGradient>
<linearGradient id="paint35_linear_40_454" x1="959.379" y1="0" x2="959.379" y2="1202" gradientUnits="userSpaceOnUse">
<stop stop-color="#0F2141" stop-opacity="0"/>
<stop offset="0.415577" stop-color="#27519B"/>
<stop offset="0.940321" stop-color="#0F2141" stop-opacity="0"/>
</linearGradient>
<linearGradient id="paint36_linear_40_454" x1="959.379" y1="0" x2="959.379" y2="1202" gradientUnits="userSpaceOnUse">
<stop stop-color="#0F2141" stop-opacity="0"/>
<stop offset="0.415577" stop-color="#27519B"/>
<stop offset="0.940321" stop-color="#0F2141" stop-opacity="0"/>
</linearGradient>
<linearGradient id="paint37_linear_40_454" x1="959.379" y1="0" x2="959.379" y2="1202" gradientUnits="userSpaceOnUse">
<stop stop-color="#0F2141" stop-opacity="0"/>
<stop offset="0.415577" stop-color="#27519B"/>
<stop offset="0.940321" stop-color="#0F2141" stop-opacity="0"/>
</linearGradient>
<linearGradient id="paint38_linear_40_454" x1="959.379" y1="0" x2="959.379" y2="1202" gradientUnits="userSpaceOnUse">
<stop stop-color="#0F2141" stop-opacity="0"/>
<stop offset="0.415577" stop-color="#27519B"/>
<stop offset="0.940321" stop-color="#0F2141" stop-opacity="0"/>
</linearGradient>
<linearGradient id="paint39_linear_40_454" x1="959.379" y1="0" x2="959.379" y2="1202" gradientUnits="userSpaceOnUse">
<stop stop-color="#0F2141" stop-opacity="0"/>
<stop offset="0.415577" stop-color="#27519B"/>
<stop offset="0.940321" stop-color="#0F2141" stop-opacity="0"/>
</linearGradient>
<linearGradient id="paint40_linear_40_454" x1="959.379" y1="0" x2="959.379" y2="1202" gradientUnits="userSpaceOnUse">
<stop stop-color="#0F2141" stop-opacity="0"/>
<stop offset="0.415577" stop-color="#27519B"/>
<stop offset="0.940321" stop-color="#0F2141" stop-opacity="0"/>
</linearGradient>
<linearGradient id="paint41_linear_40_454" x1="959.379" y1="0" x2="959.379" y2="1202" gradientUnits="userSpaceOnUse">
<stop stop-color="#0F2141" stop-opacity="0"/>
<stop offset="0.415577" stop-color="#27519B"/>
<stop offset="0.940321" stop-color="#0F2141" stop-opacity="0"/>
</linearGradient>
<linearGradient id="paint42_linear_40_454" x1="959.379" y1="0" x2="959.379" y2="1202" gradientUnits="userSpaceOnUse">
<stop stop-color="#0F2141" stop-opacity="0"/>
<stop offset="0.415577" stop-color="#27519B"/>
<stop offset="0.940321" stop-color="#0F2141" stop-opacity="0"/>
</linearGradient>
<linearGradient id="paint43_linear_40_454" x1="959.379" y1="0" x2="959.379" y2="1202" gradientUnits="userSpaceOnUse">
<stop stop-color="#0F2141" stop-opacity="0"/>
<stop offset="0.415577" stop-color="#27519B"/>
<stop offset="0.940321" stop-color="#0F2141" stop-opacity="0"/>
</linearGradient>
<linearGradient id="paint44_linear_40_454" x1="959.379" y1="0" x2="959.379" y2="1202" gradientUnits="userSpaceOnUse">
<stop stop-color="#0F2141" stop-opacity="0"/>
<stop offset="0.415577" stop-color="#27519B"/>
<stop offset="0.940321" stop-color="#0F2141" stop-opacity="0"/>
</linearGradient>
<linearGradient id="paint45_linear_40_454" x1="959.379" y1="0" x2="959.379" y2="1202" gradientUnits="userSpaceOnUse">
<stop stop-color="#0F2141" stop-opacity="0"/>
<stop offset="0.415577" stop-color="#27519B"/>
<stop offset="0.940321" stop-color="#0F2141" stop-opacity="0"/>
</linearGradient>
<linearGradient id="paint46_linear_40_454" x1="959.379" y1="0" x2="959.379" y2="1202" gradientUnits="userSpaceOnUse">
<stop stop-color="#0F2141" stop-opacity="0"/>
<stop offset="0.415577" stop-color="#27519B"/>
<stop offset="0.940321" stop-color="#0F2141" stop-opacity="0"/>
</linearGradient>
<linearGradient id="paint47_linear_40_454" x1="959.379" y1="0" x2="959.379" y2="1202" gradientUnits="userSpaceOnUse">
<stop stop-color="#0F2141" stop-opacity="0"/>
<stop offset="0.415577" stop-color="#27519B"/>
<stop offset="0.940321" stop-color="#0F2141" stop-opacity="0"/>
</linearGradient>
<linearGradient id="paint48_linear_40_454" x1="959.379" y1="0" x2="959.379" y2="1202" gradientUnits="userSpaceOnUse">
<stop stop-color="#0F2141" stop-opacity="0"/>
<stop offset="0.415577" stop-color="#27519B"/>
<stop offset="0.940321" stop-color="#0F2141" stop-opacity="0"/>
</linearGradient>
<linearGradient id="paint49_linear_40_454" x1="959.379" y1="0" x2="959.379" y2="1202" gradientUnits="userSpaceOnUse">
<stop stop-color="#0F2141" stop-opacity="0"/>
<stop offset="0.415577" stop-color="#27519B"/>
<stop offset="0.940321" stop-color="#0F2141" stop-opacity="0"/>
</linearGradient>
<linearGradient id="paint50_linear_40_454" x1="959.379" y1="0" x2="959.379" y2="1202" gradientUnits="userSpaceOnUse">
<stop stop-color="#0F2141" stop-opacity="0"/>
<stop offset="0.415577" stop-color="#27519B"/>
<stop offset="0.940321" stop-color="#0F2141" stop-opacity="0"/>
</linearGradient>
<linearGradient id="paint51_linear_40_454" x1="959.379" y1="0" x2="959.379" y2="1202" gradientUnits="userSpaceOnUse">
<stop stop-color="#0F2141" stop-opacity="0"/>
<stop offset="0.415577" stop-color="#27519B"/>
<stop offset="0.940321" stop-color="#0F2141" stop-opacity="0"/>
</linearGradient>
</defs>
</svg>
