<svg width="24" height="24" viewBox="0 0 24 24" fill="none" xmlns="http://www.w3.org/2000/svg">
<g clip-path="url(#clip0_1526_41486)">
<circle cx="12" cy="12" r="12" fill="white"/>
<path d="M6.41312 19C6.01062 19 5.67462 18.8652 5.40512 18.5957C5.13504 18.3257 5 17.9894 5 17.5869V6.41312C5 6.01062 5.13504 5.67462 5.40512 5.40512C5.67462 5.13504 6.01062 5 6.41312 5H15.1299L19 8.87013V17.5869C19 17.9894 18.8652 18.3254 18.5957 18.5949C18.3257 18.865 17.9894 19 17.5869 19H6.41312ZM8.0625 15.5H15.9375V14.625H8.0625V15.5ZM8.0625 12.4375H15.9375V11.5625H8.0625V12.4375ZM14 10L18.125 9.375L14.625 5.875L14 10ZM8.0625 9.375H12V8.5H8.0625V9.375Z" fill="black"/>
</g>
<defs>
<clipPath id="clip0_1526_41486">
<rect width="24" height="24" fill="white"/>
</clipPath>
</defs>
</svg>
