<svg width="24" height="24" viewBox="0 0 24 24" fill="none" xmlns="http://www.w3.org/2000/svg">
<g clip-path="url(#clip0_153_4995)">
<path fill-rule="evenodd" clip-rule="evenodd" d="M12 24C18.6274 24 24 18.6274 24 12C24 5.37258 18.6274 0 12 0C5.37258 0 0 5.37258 0 12C0 18.6274 5.37258 24 12 24ZM18.2981 9.16163V11.2523C18.5032 11.2713 18.8063 11.3535 18.9477 11.6964C18.9889 11.7976 19.0062 11.9071 18.998 12.0162V13.3781C18.998 13.5645 18.9243 13.7432 18.7931 13.875C18.6618 14.0068 18.4838 14.0808 18.2981 14.0808V17.5945C18.2981 17.9673 18.1507 18.3248 17.8882 18.5883C17.6256 18.8519 17.2696 19 16.8983 19H7.09971C6.72846 19 6.37241 18.8519 6.1099 18.5883C5.84738 18.3248 5.6999 17.9673 5.6999 17.5945V14.0808C5.51428 14.0808 5.33625 14.0068 5.205 13.875C5.07374 13.7432 5 13.5645 5 13.3781V11.9726C4.99991 11.795 5.06687 11.6239 5.1874 11.4939C5.30793 11.3639 5.47306 11.2846 5.64951 11.272L5.6999 11.2684V9.16163C5.6999 8.78887 5.84738 8.43138 6.1099 8.1678C6.37241 7.90423 6.72846 7.75615 7.09971 7.75615H11.2991V6.83415C11.0857 6.6416 10.9492 6.36472 10.9492 6.05411C10.9492 5.77454 11.0598 5.50643 11.2567 5.30874C11.4536 5.11106 11.7206 5 11.999 5C12.2775 5 12.5445 5.11106 12.7414 5.30874C12.9383 5.50643 13.0489 5.77454 13.0489 6.05411C13.0489 6.36472 12.9124 6.6416 12.6989 6.83415V7.75615H16.8983C17.2696 7.75615 17.6256 7.90423 17.8882 8.1678C18.1507 8.43138 18.2981 8.78887 18.2981 9.16163ZM9.54937 10.5671C8.96985 10.5671 8.49951 11.1968 8.49951 11.9726C8.49951 12.7484 8.96985 13.3781 9.54937 13.3781C10.1289 13.3781 10.5992 12.7484 10.5992 11.9726C10.5992 11.1968 10.1289 10.5671 9.54937 10.5671ZM9.19941 16.189C9.19941 16.189 14.0966 16.1869 14.7972 16.189L14.8 14.7836C14.0994 14.7822 9.19941 14.7836 9.19941 14.7836V16.189ZM13.3988 11.9726C13.3988 12.7484 13.8692 13.3781 14.4487 13.3781C15.0282 13.3781 15.4985 12.7484 15.4985 11.9726C15.4985 11.1968 15.0282 10.5671 14.4487 10.5671C13.8692 10.5671 13.3988 11.1968 13.3988 11.9726Z" fill="white"/>
</g>
<defs>
<clipPath id="clip0_153_4995">
<rect width="24" height="24" fill="white"/>
</clipPath>
</defs>
</svg>
