<svg width="36" height="37" viewBox="0 0 36 37" fill="none" xmlns="http://www.w3.org/2000/svg">
<rect y="0.5" width="36" height="36" rx="10" fill="url(#paint0_linear_86_2986)"/>
<path d="M23 8.5C20.2398 8.50309 18.0031 10.7398 18 13.5H15.5C14.1193 13.5 13 14.6193 13 16V18.5H8V28.5H18V23.5H20.5C21.8807 23.5 23 22.3807 23 21V18.5C25.7614 18.5 28 16.2614 28 13.5C28 10.7386 25.7614 8.5 23 8.5ZM16.75 27.25H9.25V19.75H16.75V27.25ZM21.75 21C21.75 21.6904 21.1904 22.25 20.5 22.25H18V18.5H14.25V16C14.25 15.3096 14.8096 14.75 15.5 14.75H20.5C21.1904 14.75 21.75 15.3096 21.75 16V21ZM23 17.25V16C23 14.6193 21.8807 13.5 20.5 13.5H19.25C19.25 11.4289 20.9289 9.75 23 9.75C25.0711 9.75 26.75 11.4289 26.75 13.5C26.75 15.5711 25.0711 17.25 23 17.25Z" fill="white"/>
<defs>
<linearGradient id="paint0_linear_86_2986" x1="-0.141732" y1="18.5" x2="35.8583" y2="18.5" gradientUnits="userSpaceOnUse">
<stop stop-color="#1C64F2"/>
<stop offset="1" stop-color="#D41CF2"/>
</linearGradient>
</defs>
</svg>
