<svg width="36" height="37" viewBox="0 0 36 37" fill="none" xmlns="http://www.w3.org/2000/svg">
<rect y="0.5" width="36" height="36" rx="10" fill="url(#paint0_linear_86_3056)"/>
<path d="M18.8333 21.8333H17.1667C16.7083 21.8333 16.3333 21.4583 16.3333 21H10.5083V24.3333C10.5083 25.25 11.2583 26 12.175 26H23.8333C24.75 26 25.5 25.25 25.5 24.3333V21H19.6667C19.6667 21.4583 19.2917 21.8333 18.8333 21.8333ZM24.6667 14.3333H21.3333C21.3333 12.4917 19.8417 11 18 11C16.1583 11 14.6667 12.4917 14.6667 14.3333H11.3333C10.4167 14.3333 9.66667 15.0833 9.66667 16V18.5C9.66667 19.425 10.4083 20.1667 11.3333 20.1667H16.3333V19.3333C16.3333 18.875 16.7083 18.5 17.1667 18.5H18.8333C19.2917 18.5 19.6667 18.875 19.6667 19.3333V20.1667H24.6667C25.5833 20.1667 26.3333 19.4167 26.3333 18.5V16C26.3333 15.0833 25.5833 14.3333 24.6667 14.3333ZM16.3333 14.3333C16.3333 13.4167 17.0833 12.6667 18 12.6667C18.9167 12.6667 19.6667 13.4167 19.6667 14.3333H16.325H16.3333Z" fill="white"/>
<defs>
<linearGradient id="paint0_linear_86_3056" x1="-0.141732" y1="18.5" x2="35.8583" y2="18.5" gradientUnits="userSpaceOnUse">
<stop stop-color="#1C64F2"/>
<stop offset="1" stop-color="#D41CF2"/>
</linearGradient>
</defs>
</svg>
