<svg width="40" height="40" viewBox="0 0 40 40" fill="none" xmlns="http://www.w3.org/2000/svg">
<g clip-path="url(#clip0_6237_52)">
<path d="M40 20C40 31.0457 31.0457 40 20 40C8.9543 40 0 31.0457 0 20C0 8.9543 8.9543 0 20 0C31.0457 0 40 8.9543 40 20Z" fill="#313E62"/>
<path d="M20 21.4062C21.6783 21.4062 23.2879 20.7395 24.4747 19.5528C25.6614 18.366 26.3281 16.7564 26.3281 15.0781C26.3281 13.3998 25.6614 11.7902 24.4747 10.6035C23.2879 9.41671 21.6783 8.75 20 8.75C18.3217 8.75 16.7121 9.41671 15.5253 10.6035C14.3386 11.7902 13.6719 13.3998 13.6719 15.0781C13.6719 16.7564 14.3386 18.366 15.5253 19.5528C16.7121 20.7395 18.3217 21.4062 20 21.4062ZM15.8384 22.8125C11.9229 22.8125 8.75 25.9853 8.75 29.9009C8.75 30.6479 9.35645 31.25 10.0991 31.25H29.9009C30.6479 31.25 31.25 30.6436 31.25 29.9009C31.25 25.9853 28.0772 22.8125 24.1616 22.8125H15.8384Z" fill="white"/>
</g>
<defs>
<clipPath id="clip0_6237_52">
<rect width="40" height="40" fill="white"/>
</clipPath>
</defs>
</svg>
