<svg width="25" height="24" viewBox="0 0 25 24" fill="none" xmlns="http://www.w3.org/2000/svg">
<g clip-path="url(#clip0_5813_330)">
<path fill-rule="evenodd" clip-rule="evenodd" d="M12.6665 24C19.2939 24 24.6665 18.6274 24.6665 12C24.6665 5.37258 19.2939 0 12.6665 0C6.03909 0 0.666504 5.37258 0.666504 12C0.666504 18.6274 6.03909 24 12.6665 24ZM6.05784 17.2747C6.31917 17.536 6.63317 17.6667 6.99984 17.6667H17.6665C18.0327 17.6671 18.3465 17.5367 18.6078 17.2753C18.8692 17.014 18.9998 16.7 18.9998 16.3333V8.33333C19.0003 7.96711 18.8698 7.65333 18.6085 7.392C18.3472 7.13067 18.0332 7 17.6665 7H6.99984C6.63362 6.99956 6.31984 7.13 6.05851 7.39133C5.79717 7.65267 5.6665 7.96667 5.6665 8.33333V16.3333C5.66606 16.6996 5.7965 17.0133 6.05784 17.2747ZM17.6665 9.66667L12.3332 13L6.99984 9.66667V8.33333L12.3332 11.6667L17.6665 8.33333V9.66667Z" fill="white"/>
</g>
<defs>
<clipPath id="clip0_5813_330">
<rect width="24" height="24" fill="white" transform="translate(0.666504)"/>
</clipPath>
</defs>
</svg>
