<svg width="24" height="25" viewBox="0 0 24 25" fill="none" xmlns="http://www.w3.org/2000/svg">
<g clip-path="url(#clip0_230_6397)">
<path fill-rule="evenodd" clip-rule="evenodd" d="M12 24.5C18.6274 24.5 24 19.1274 24 12.5C24 5.87258 18.6274 0.5 12 0.5C5.37258 0.5 0 5.87258 0 12.5C0 19.1274 5.37258 24.5 12 24.5ZM4.56691 11.2632L4.44077 11.084C4.29741 11.0782 4.19054 11.0786 4.07957 11.0981C4.04112 11.0734 4.01338 11.0515 4 11.0337L4.01187 10.9239C4.14055 10.8338 4.24494 10.8085 4.37351 10.7772C4.40064 10.7707 4.42884 10.7638 4.45858 10.756C4.53288 10.172 4.88599 10.0031 5.27335 9.81781C5.44695 9.73477 5.62742 9.64844 5.79275 9.51999C5.85923 9.3357 5.93194 9.167 5.99908 9.01123C6.07284 8.84011 6.13988 8.68457 6.18455 8.54107L6.36931 8.41924L6.31144 8.42349L5.23994 7.76474L5.28001 7.65283C5.85212 7.81787 6.28918 8.01337 6.76111 8.2287C6.88858 8.15037 6.98922 8.05184 7.08986 7.95331C7.22766 7.81841 7.36546 7.68351 7.57215 7.60041L7.47198 7.47149C7.45334 7.46032 7.4347 7.44915 7.41606 7.43797C6.93378 7.14883 6.45096 6.85936 5.97158 6.54429L6.11554 6.53366C6.96814 6.74545 7.3629 6.99691 7.93575 7.41129L8.14797 7.28733L6.75591 6.1625L6.81973 6.10371L6.82567 6.04916L7.912 6.56979L8.43143 7.05004C8.45004 7.05365 8.66662 6.93801 8.93004 6.79736C9.28641 6.60709 9.72851 6.37105 9.8821 6.32258C10.4102 6.16098 10.9608 6.07645 11.5153 6.07183C12.0422 6.06191 12.5542 6.10654 13.0439 6.154C13.0705 6.10397 13.1102 6.04042 13.1555 5.96787C13.3547 5.64902 13.6623 5.15648 13.4387 4.87546C13.1767 4.25709 11.968 5.03058 11.5138 5.35358C11.453 5.3975 11.4055 5.43292 11.3758 5.45558C11.4141 5.3927 11.4605 5.33464 11.5138 5.28275C11.9739 4.81738 13.2302 4.14163 13.5982 4.72813C13.8298 5.09887 13.5384 5.54577 13.3039 5.90545C13.2332 6.01375 13.1678 6.11414 13.1233 6.20216C13.4624 6.26237 13.7281 6.42387 13.9692 6.57758L14.2579 6.28575L14.367 6.3325C14.3656 6.38168 14.3505 6.42963 14.3232 6.47133C14.3156 6.3956 14.3131 6.39148 14.2975 6.36639C14.2931 6.35933 14.2877 6.35061 14.2809 6.33816L14.1889 6.39908L14.0553 6.57191L14.0724 6.67958C14.2278 6.70384 14.2557 6.76002 14.3086 6.86673C14.3221 6.89397 14.3373 6.92452 14.3566 6.95866L14.4174 6.9275C14.4561 6.81465 14.5039 6.70683 14.5515 6.59934C14.6789 6.31144 14.8053 6.02591 14.755 5.6525C14.6839 5.60738 14.6163 5.58609 14.5364 5.56094C14.4947 5.54779 14.4496 5.53359 14.3989 5.51437L14.6296 5.49808L14.8448 5.6185C14.9636 6.14762 14.7105 6.70225 14.4538 7.1145L14.4998 7.22004C14.8945 6.96645 15.5935 6.16604 15.7479 5.71767L15.5089 5.81683L15.7286 5.63833L15.8696 5.65533C15.807 6.01902 15.5197 6.30049 15.2558 6.55905C15.1507 6.66206 15.0493 6.76143 14.9673 6.86091C15.3479 6.64678 15.7075 6.38856 16.071 6.12757C16.3736 5.91029 16.6789 5.6911 17.0012 5.49383C17.0455 5.46668 17.1076 5.42412 17.1778 5.37592C17.3989 5.22422 17.7013 5.01665 17.7914 5.0575L17.8367 5.16304L17.7796 5.16729L14.5762 7.56854L14.5347 7.95174L14.9814 8.05658C15.3478 7.85181 15.7152 7.64748 16.0825 7.44324C16.1815 7.3882 16.2804 7.33316 16.3794 7.27812L16.3994 7.35816L15.1706 8.15149L15.2277 8.14724C15.3472 8.26553 15.5824 8.3647 15.8035 8.37887L16.8387 7.78954L16.7719 7.87524L16.2124 8.29599C16.326 8.23078 16.4953 8.18682 16.6681 8.14195C16.8632 8.09129 17.0628 8.03946 17.1919 7.95458L17.0902 8.09766C17.2688 8.1036 17.3211 8.1514 17.3973 8.22099C17.4119 8.23437 17.4274 8.24856 17.4449 8.26341L17.4353 8.34558L17.3722 8.40437C17.2973 8.39162 17.2223 8.37887 17.1503 8.33849L17.3173 8.38099L17.3182 8.38051C17.3379 8.37004 17.3584 8.35918 17.3811 8.3222C17.3722 8.30566 17.3631 8.28921 17.3541 8.2728C17.3391 8.24563 17.3242 8.21853 17.3099 8.19116C16.8134 8.09766 16.4261 8.20674 15.9898 8.50141L16.012 8.55453L16.3949 8.71816C16.5856 8.54107 16.7763 8.3647 16.9633 8.21524L16.392 8.74578L16.4402 8.8237C16.7398 8.93314 16.9284 9.15485 17.1157 9.37501C17.223 9.50109 17.3298 9.62667 17.4568 9.73036C17.7064 9.61965 17.9005 9.65578 18.0689 9.68713C18.1903 9.70974 18.2984 9.72987 18.4044 9.6907L18.6811 9.50866C18.8288 9.55824 18.9468 9.61916 19.0292 9.72824C18.9731 9.70736 18.9317 9.68291 18.8917 9.65934C18.8205 9.61733 18.754 9.57808 18.6181 9.56674C18.5476 9.63161 18.4966 9.7117 18.4586 9.80231L18.3547 9.80545C18.371 9.86487 18.3858 9.92429 18.4006 9.98372L18.4007 9.98395L18.4008 9.98363C18.3675 10.1227 18.3507 10.276 18.3336 10.4315C18.3119 10.6282 18.2899 10.8285 18.2337 11.0082C17.9643 11.8653 17.3076 12.4334 16.4231 12.6855C16.4272 12.7189 16.4287 12.7525 16.4276 12.7861C16.4267 12.8395 16.4223 12.8989 16.4178 12.9582C16.4067 13.1072 16.3955 13.2559 16.4417 13.3096C17.0568 13.51 18.9416 13.1665 19.6183 13.0036L19.3067 12.9717C19.3119 12.9256 19.3171 12.8803 19.3512 12.8321L19.7445 12.886L19.8454 13.0149C19.4051 13.5124 17.2886 13.549 16.3671 13.565C16.3334 13.5656 16.3014 13.5661 16.271 13.5667L15.9898 14.0484L16.0484 14.0441L17.0924 14.161C18.2708 14.3111 19.7163 14.224 21 13.9669C20.5221 14.3536 19.0217 14.62 18.1877 14.6001C18.2315 14.717 18.2278 14.7815 18.1558 14.9012C17.6738 15.0198 17.1252 14.8391 16.5996 14.6659C16.4125 14.6043 16.2283 14.5436 16.0511 14.4977C16.0635 14.5152 16.0757 14.5343 16.0877 14.5548C16.0674 14.5328 16.047 14.5117 16.0268 14.4915C15.9018 14.46 15.7804 14.4363 15.664 14.4252L15.7382 14.4606C15.6911 14.4546 15.643 14.4592 15.5981 14.474C15.5531 14.4889 15.5124 14.5137 15.4793 14.5463L15.3294 14.6115C15.7954 15.1406 16.2621 15.6697 16.7296 16.1981L16.6628 16.2846L16.576 16.2909L15.1068 14.8176L15.0459 14.8488C14.9216 15.143 14.7138 15.3552 14.5063 15.5672C14.4316 15.6436 14.3568 15.7199 14.2861 15.8001C14.9116 15.5748 15.5609 16.1344 15.267 16.7634C15.4822 16.0048 14.4597 15.5507 14.0353 16.0076C14.0406 16.0156 14.0449 16.0221 14.0484 16.0276C14.067 16.0562 14.067 16.0562 14.1124 16.0841C14.1674 16.1134 14.2303 16.1162 14.2878 16.1188C14.3552 16.1217 14.4151 16.1244 14.4464 16.1691L14.1325 16.1641C14.1369 16.1805 14.1414 16.1968 14.1457 16.213C14.0934 16.1226 14.0417 16.053 14.0011 16.0161C13.8578 16.0777 13.7204 16.1467 13.582 16.2162C13.2094 16.4033 12.8298 16.594 12.3093 16.6529L12.3909 16.7336L12.8161 17.5362C12.9552 17.5479 13.0805 17.5707 13.2067 17.5937C13.4171 17.6321 13.63 17.6709 13.9143 17.6594C13.953 17.6366 13.9888 17.6192 14.0222 17.603C14.1059 17.5622 14.1749 17.5286 14.2386 17.4349C14.264 17.4088 14.2858 17.3804 14.3042 17.3501C14.2161 17.7481 13.8086 17.8998 12.7567 17.7834C13.0127 18.5498 12.7308 19.9934 11.9628 20.3681C12.7144 19.5053 12.756 18.87 12.6477 17.7366L11.8225 17.442L11.4938 17.5737C11.036 17.6552 10.613 17.3513 10.5195 17.0715L10.4587 17.1034L9.62388 18.2225L9.54077 18.9897C9.48719 19.19 9.44575 19.4429 9.40172 19.7115C9.28537 20.4215 9.15095 21.2418 8.72676 21.4936L8.64068 21.5C9.16159 21.1692 9.36862 19.3113 9.45172 18.4804C9.1434 18.7234 8.87175 19.0462 8.598 19.3714C8.20305 19.8407 7.80372 20.3152 7.2835 20.5629C7.56464 20.2131 7.85826 19.9387 8.13855 19.6768C8.82441 19.0359 9.43037 18.4696 9.57787 17.0566C9.31936 17.269 8.96566 17.6718 8.57348 18.1183C7.80168 18.9971 6.88083 20.0456 6.24317 20.1471C6.19239 20.1127 6.14863 20.0697 6.11406 20.0203C6.15338 19.6814 6.31571 19.4528 6.47742 19.2251C6.55369 19.1177 6.62982 19.0104 6.69284 18.8919L6.74478 18.9429L6.80266 18.9387C6.75496 19.0841 6.68504 19.2247 6.61161 19.3723C6.53199 19.5324 6.44823 19.7008 6.38416 19.8928C7.19297 19.4388 8.73121 17.7388 9.33003 16.966L8.85216 16.8902C8.7928 17.3598 8.40175 17.9775 8.08267 18.1956L8.03073 18.1446C8.1046 17.9806 8.20431 17.8481 8.3033 17.7165C8.43004 17.548 8.55562 17.381 8.62436 17.1516C8.57468 17.1902 8.4975 17.2652 8.40511 17.3551C8.09451 17.657 7.6119 18.1262 7.42375 17.9428L7.4794 17.6948L7.54099 17.663L7.65229 17.6821L7.61148 17.794C7.84565 17.6427 8.03572 17.4528 8.22513 17.2636C8.38144 17.1075 8.53729 16.9519 8.71711 16.8186L8.69485 16.7662L8.32628 16.584C8.33165 16.5723 8.33745 16.559 8.34387 16.5438L8.05744 16.5013L8.07451 16.3419C8.09974 16.3378 8.11971 16.3385 8.13362 16.3391C8.15981 16.3401 8.16458 16.3402 8.14278 16.3051C8.06783 16.213 8.04557 16.1988 7.86303 16.1988L7.58773 16.6621C7.62261 16.6703 7.65532 16.6786 7.6871 16.6867C7.82634 16.7221 7.94783 16.753 8.15636 16.7465C8.13249 16.7689 8.10221 16.7892 8.06115 16.8108C7.85994 16.8782 7.70131 16.8435 7.5436 16.809C7.49177 16.7977 7.44004 16.7864 7.38692 16.7787C7.3911 16.7721 7.39522 16.7653 7.39926 16.7584L6.98223 16.5983C6.0124 17.4661 5.1598 16.1273 5.71707 15.7165L5.69406 15.6641L5.42619 15.4671L5.42025 15.5217C5.00917 16.2668 5.97975 17.3485 6.67355 17.2932C6.71672 17.2702 6.75956 17.2483 6.80175 17.2267C6.98137 17.1347 7.14905 17.0488 7.27931 16.9152C6.06571 18.4519 4.33285 15.4641 5.82763 14.7383C5.75956 14.3582 5.48984 14.117 5.21462 13.8709C4.91078 13.5991 4.60022 13.3214 4.54688 12.8442L4.54169 12.7875C4.5185 12.3764 4.76671 12.2153 5.01216 12.0561C5.1752 11.9503 5.33702 11.8453 5.41728 11.6684C5.614 11.2334 5.6388 10.8 5.66566 10.3307C5.67599 10.1503 5.68661 9.96457 5.70742 9.77145L5.6206 9.77782C5.17093 9.96411 4.66635 10.2474 4.5966 10.8014C4.9032 10.7934 5.157 10.9295 5.25592 11.164C5.13285 11.0269 5.01915 10.921 4.75539 10.8984C4.77246 11.1463 4.96019 11.3694 5.16054 11.4325L5.28648 11.4436L5.17241 11.5487C5.0458 11.5279 4.67216 11.3886 4.3786 11.2538C4.43975 11.2586 4.50371 11.2614 4.56691 11.2632ZM5.2993 11.4317C5.3049 11.3325 5.28915 11.2427 5.25592 11.164C5.26677 11.176 5.2777 11.1884 5.2888 11.2009C5.29809 11.2114 5.30751 11.222 5.31711 11.2327C5.3176 11.256 5.31816 11.2793 5.31873 11.3027C5.3199 11.3505 5.32106 11.3986 5.32156 11.4467L5.28648 11.4436L5.2993 11.4317ZM4.3786 11.2538C4.19567 11.2394 4.03782 11.2068 4 11.1293C4 11.1244 4.00148 11.1194 4.00297 11.1144C4.02903 11.1079 4.0544 11.1025 4.07957 11.0981C4.15045 11.1435 4.25774 11.1983 4.3786 11.2538ZM7.27931 16.9152C7.31887 16.8746 7.35498 16.8296 7.38692 16.7787C7.38411 16.7783 7.3813 16.7779 7.37848 16.7776C7.34587 16.827 7.31279 16.8728 7.27931 16.9152ZM8.15636 16.7465C8.16859 16.7461 8.18112 16.7456 8.19398 16.745C8.21412 16.7247 8.22997 16.7103 8.24319 16.6983C8.27918 16.6656 8.2957 16.6505 8.32628 16.584L8.26076 16.5516C8.22773 16.6452 8.20582 16.7002 8.15636 16.7465ZM14.1457 16.213C14.318 16.5106 14.4967 17.0331 14.3042 17.3501C14.3637 17.0813 14.2774 16.7 14.1457 16.213ZM16.3823 15.4686C16.6005 15.0188 16.3519 14.7383 16.0877 14.5548C16.2799 14.7616 16.4239 15.1583 16.3823 15.4686ZM18.4008 9.98363L18.4956 9.8012L18.4586 9.80231C18.4348 9.85901 18.4161 9.91983 18.4008 9.98363ZM5.84173 11.8065L5.78088 11.6294C5.76456 11.6308 5.74972 11.6308 5.73339 11.6308L5.69926 11.8122L5.84173 11.8065ZM6.23147 12.9523C6.24279 12.9425 6.25435 12.9325 6.26617 12.9221V12.9214L6.22684 12.8506L5.85434 12.1776L5.70816 12.1876L5.69926 12.2711C5.71189 12.3444 5.72125 12.4288 5.73106 12.5174C5.74316 12.6265 5.75595 12.7419 5.77643 12.8506C5.80982 13.0312 5.86399 13.1927 5.96787 13.2741C6.0358 13.122 6.122 13.0472 6.23147 12.9523ZM6.13483 10.9005C6.11524 11.0213 6.0962 11.1422 6.0777 11.2632C6.11181 11.1414 6.14741 11.0197 6.18301 10.8979L6.18306 10.8977L6.13483 10.9005ZM6.64387 9.79128L5.97604 9.61845V9.61916L5.9471 9.64961L5.88848 10.5322C6.00886 10.2228 6.21006 10.0961 6.4403 9.95115C6.50525 9.91027 6.5725 9.86792 6.6409 9.81961C6.64179 9.81016 6.64278 9.80071 6.64387 9.79128ZM6.68259 9.51961C6.61215 9.28098 6.55814 9.09801 6.59935 8.7047L6.60009 8.70399L6.46133 8.81874C6.42029 8.89977 6.37548 8.97507 6.33065 9.05039C6.23363 9.21341 6.13657 9.37649 6.0777 9.59791L6.09996 9.6227C6.40716 9.60711 6.61938 9.70628 6.81973 9.8012C6.85832 9.68149 6.81082 9.63261 6.6921 9.55186C6.6889 9.54099 6.68573 9.53024 6.68259 9.51961ZM7.58848 8.15574L7.55954 8.15787L7.35103 8.22303C6.9251 8.5177 6.91768 9.26357 7.29834 9.4357C7.39801 9.26383 7.4502 8.9305 7.49732 8.62953C7.52633 8.44426 7.55342 8.27126 7.58848 8.15574ZM7.5254 10.7355L7.20484 10.4033L7.58848 10.6484C7.57996 10.6274 7.57148 10.6066 7.56301 10.5857C7.53534 10.5176 7.5078 10.4498 7.4794 10.382L7.18258 10.3494C7.16283 10.4395 7.11559 10.5613 7.06201 10.6995C6.92843 11.044 6.75547 11.4901 6.87093 11.798L7.06015 11.8122C7.11813 11.5659 7.22144 11.3693 7.32277 11.1764C7.39779 11.0335 7.47174 10.8928 7.5254 10.7355ZM8.11716 8.71265C8.08884 8.55143 8.06054 8.39033 8.08193 8.15503L7.86526 8.17062C7.71678 8.5159 7.62348 8.8805 7.58848 9.25224C7.65924 9.21793 7.73011 9.18373 7.801 9.14951C7.91893 9.09259 8.03693 9.03563 8.15465 8.97812C8.14697 8.88237 8.13206 8.79749 8.11716 8.71265ZM8.34387 7.60679L8.30157 7.60962L8.25111 7.68116L8.15465 7.78954L8.28005 7.78174L8.34387 7.60679ZM7.77695 9.61774L8.34387 9.28482L8.33422 9.09711L8.28228 9.0702C8.05744 9.14528 7.78883 9.41657 7.77695 9.61774ZM8.6199 8.58145C8.6533 8.39587 8.68743 8.21099 8.7223 8.02541L8.35129 7.97299C8.32903 8.22941 8.355 8.56658 8.4574 8.70399L8.51379 8.6452L8.6199 8.58145ZM9.09784 7.62076C9.09853 7.61671 9.09926 7.61245 9.09926 7.60749H8.77276C8.7685 7.62255 8.76418 7.6376 8.75987 7.65265C8.74693 7.69781 8.73399 7.74296 8.7223 7.78812L8.73127 7.78843C8.84465 7.79242 8.85829 7.7929 8.95234 7.75837L9.09703 7.62591C9.09725 7.62421 9.09754 7.62251 9.09784 7.62076ZM9.30851 7.24129L9.4777 6.8765L9.47695 6.87579C9.2504 6.92343 9.07428 7.00708 8.89766 7.09096C8.84057 7.11807 8.78344 7.14521 8.72453 7.17116L8.7223 7.20091L9.30851 7.24129ZM9.23431 7.79024L9.17198 7.82566V7.82495L9.09926 7.93758L9.28848 7.97299L9.23431 7.79024ZM9.31844 8.43606C9.43844 8.42073 9.56161 8.40499 9.66617 8.36612L9.59939 8.37037C9.55525 8.35374 9.51107 8.33708 9.46686 8.32041C9.3208 8.26533 9.17441 8.21012 9.02802 8.15574L8.91078 8.30237C8.92405 8.37554 8.93715 8.44873 8.95011 8.52195C9.04657 8.4708 9.1804 8.4537 9.31844 8.43606ZM8.92636 8.70399L9.18311 8.69478L9.37901 8.67212L9.66617 8.52124C9.59695 8.52862 9.52577 8.53454 9.45512 8.54041C9.24785 8.55764 9.04526 8.57448 8.91078 8.62678C8.91229 8.63438 8.91373 8.64192 8.91517 8.64942C8.91868 8.66778 8.92215 8.68588 8.92636 8.70399ZM9.28996 9.0702C9.43169 8.92853 9.63872 8.74649 9.85465 8.69478C9.83549 8.58821 9.82751 8.58157 9.77625 8.53891C9.76993 8.53366 9.76295 8.52785 9.75522 8.52124C9.59568 8.61262 9.26251 8.90445 9.28996 9.0702ZM10.2301 6.53933L10.2331 6.511L9.66914 6.66541L9.66617 6.69375L10.0031 6.67037L10.2301 6.53933ZM9.91245 7.03817L9.92737 7.05925L10.6108 6.91545C10.5785 6.91229 10.5423 6.90783 10.5035 6.90305C10.4607 6.89777 10.4147 6.89211 10.3674 6.88736C10.7414 6.84412 11.1629 6.93074 11.3061 7.06279L11.3654 7.05783C11.2195 7.18792 11.0338 7.26064 10.8495 7.33274C10.6636 7.4055 10.4793 7.47764 10.3392 7.60749C10.3197 7.59515 10.3006 7.5832 10.2818 7.57147C10.0889 7.45116 9.93172 7.35315 9.85465 7.08404C9.87259 7.06768 9.8919 7.0524 9.91245 7.03817ZM9.91245 7.03817L9.85465 6.95654C9.97001 6.86413 10.1793 6.86849 10.3674 6.88736C10.1951 6.9073 10.0328 6.95481 9.91245 7.03817ZM12.4329 6.74257C12.2143 6.61473 11.929 6.54539 11.6177 6.52091V6.52162C11.2173 6.49554 10.815 6.5273 10.4245 6.61583L10.4216 6.6392L11.6177 6.80141C11.672 6.80885 11.7263 6.81634 11.7807 6.82384C11.8751 6.83686 11.9697 6.8499 12.0642 6.86266C11.9024 6.88643 11.7357 6.87563 11.5554 6.83895C11.7978 7.05877 12.1837 7.14379 12.564 7.22759C12.81 7.28178 13.0536 7.33546 13.2546 7.42474C13.1685 7.17993 12.9712 7.03757 12.777 6.89742C12.6869 6.83239 12.5974 6.76784 12.52 6.69375C12.4909 6.71142 12.4619 6.72767 12.4329 6.74257ZM12.4329 6.74257C12.3102 6.80567 12.1887 6.84438 12.0642 6.86266C12.0969 6.86707 12.1297 6.87145 12.1624 6.87579L12.4644 6.79079L12.4993 6.74404L12.4414 6.74758C12.4386 6.7459 12.4357 6.74423 12.4329 6.74257ZM12.8072 6.511L12.874 6.42458L12.877 6.39696L12.31 6.32825C12.453 6.43501 12.6261 6.49863 12.8072 6.511ZM14.0368 7.04366L13.8802 7.10033H13.8794C13.9255 7.04245 13.9502 7.02784 13.9553 7.00819C13.9592 6.99272 13.951 6.97414 13.9314 6.92891C13.7564 6.87409 13.5905 6.79869 13.4209 6.72162C13.2575 6.64733 13.0906 6.57149 12.9089 6.511L12.6885 6.596L12.7122 6.64204C13.2576 6.7922 13.5685 7.21791 13.8149 7.60749L13.9054 7.60183C13.9368 7.56243 13.9707 7.52469 14.004 7.48765C14.0958 7.38548 14.1829 7.28859 14.1993 7.17683L14.0368 7.04366ZM14.2928 7.92624L14.3358 7.96662L14.3551 7.79095L14.1993 7.93262L14.2928 7.92624ZM14.7172 10.8977C14.8233 10.501 14.758 10.195 14.5027 9.98395C14.5007 9.995 14.4994 10.0064 14.4981 10.0179C14.4974 10.0233 14.4968 10.0288 14.4961 10.0342C14.4815 10.0552 14.4672 10.0762 14.4529 10.0971C14.4315 10.1286 14.41 10.16 14.3877 10.1915C14.4572 10.3393 14.5262 10.4875 14.5951 10.6355C14.6358 10.723 14.6764 10.8104 14.7172 10.8977ZM14.574 8.37462L14.577 8.34062L14.5161 8.34628C14.4618 8.35353 14.4506 8.3376 14.4419 8.33881C14.4335 8.33997 14.4272 8.35675 14.3877 8.4242L14.4397 8.52124L14.574 8.37462ZM15.3323 8.55028L14.7343 8.33849L14.5821 8.43553L14.577 8.49291L15.1758 8.70399C15.2262 8.67212 15.2767 8.64024 15.3271 8.60695C15.3294 8.58853 15.3316 8.56941 15.3323 8.55028ZM15.5676 8.85982L15.8993 9.0702C15.8903 9.03974 15.8812 9.00923 15.8721 8.97868C15.8468 8.89345 15.8214 8.80793 15.7969 8.72241C15.723 8.70866 15.6899 8.70058 15.659 8.70562C15.6261 8.71096 15.5957 8.73107 15.5216 8.77482L15.5676 8.85982ZM16.021 9.0702L16.0877 9.00078L16.0722 8.95899L15.8993 8.88674L15.9 8.88943C15.927 8.98121 15.9416 9.03091 16.021 9.0702ZM15.8993 8.48087L15.9467 8.47732C15.9824 8.43128 16.0195 8.38524 16.0566 8.3392C16.0031 8.38595 15.9512 8.43341 15.8993 8.48087ZM16.7511 9.4357L16.8439 9.39674L16.6064 9.10561C16.5247 9.06696 16.4689 9.01769 16.4215 8.97572C16.3253 8.89079 16.263 8.83573 16.0877 8.95899C16.1403 9.02755 16.193 9.09603 16.2458 9.16441C16.4141 9.25511 16.5825 9.34554 16.7511 9.4357ZM16.8439 9.49236L17.0323 9.55824L16.9574 9.4357L16.8439 9.49236ZM16.9515 9.93999C16.8677 9.95516 16.8566 9.95717 16.8023 9.85291L17.0145 9.80545L16.9381 9.68786C16.8693 9.6781 16.8164 9.66336 16.7684 9.64996C16.677 9.62448 16.6029 9.60381 16.4691 9.6312L16.4654 9.66236L16.7422 10.1667L17.0323 9.92728C16.9993 9.93133 16.973 9.9361 16.9515 9.93999ZM17.2216 9.98395L16.8439 10.1809L16.9307 10.3494C16.9478 10.332 16.9645 10.3152 16.9809 10.2989C17.0757 10.2042 17.157 10.1229 17.2216 9.98395ZM17.573 10.8994C17.5816 10.8929 17.5903 10.886 17.5993 10.8786L17.2772 10.1667L17.2104 10.1972L16.8439 10.6115L16.857 11.2509L16.8364 11.2611L16.4654 11.9949L16.5604 11.9885C16.6124 11.9656 16.6634 11.9436 16.713 11.9222C17.2311 11.6991 17.6074 11.537 17.5993 10.8977L17.573 10.8994ZM17.3987 10.9832L17.5674 10.8998L17.573 10.8994C17.5179 10.9417 17.4696 10.9668 17.3987 10.9832ZM17.3987 10.9832L17.3333 11.0155L17.2364 11.0054C17.3035 11 17.3553 10.9932 17.3987 10.9832ZM17.3333 11.0155L17.3922 11.0217L17.3893 11.0479L16.8572 11.2632L16.857 11.2509L17.3333 11.0155ZM17.41 9.8784C18.4533 9.60074 18.2515 10.1292 17.7863 10.5322C17.6601 10.3147 17.5347 10.0966 17.41 9.8784ZM16.5367 12.5431C17.8961 11.8022 17.9703 11.708 18.3547 9.98395L18.296 10.0144L17.8515 10.5598C17.9042 11.5635 17.4004 12.0069 16.5137 12.2478L16.4654 12.4404L16.4654 12.4405C16.4899 12.4745 16.5144 12.5084 16.5367 12.5431ZM16.1011 11.47L16.0877 11.6606C16.1115 11.7569 16.1241 11.7732 16.1879 11.8122C16.2621 11.6386 16.2992 11.4792 16.2621 11.2632C16.2562 11.2639 16.2502 11.2653 16.2436 11.2653L16.113 11.3071L16.1011 11.47ZM15.3353 13.2281L15.3323 13.26L15.946 13.2741C15.9565 13.2448 15.9669 13.2163 15.9771 13.1886C16.0449 13.0039 16.1015 12.8493 16.0848 12.6621C16.0825 12.6331 16.0781 12.6026 16.0714 12.5715L15.6351 12.5431L15.5832 12.6621L15.4472 12.9725L15.4993 12.8017L15.5216 12.7259L15.5045 12.7273L15.3539 12.8017L15.3346 12.8109L15.3323 12.8336L15.4045 13.0701L15.3353 13.2281ZM15.4045 13.0701L15.411 13.0914L15.4472 12.9725L15.4045 13.0701ZM15.5268 13.7105L15.5216 13.9938L15.6811 14.0059C15.7531 13.8897 15.8258 13.7742 15.8993 13.6588L15.8533 13.6623L15.5342 13.6396L15.5268 13.7105ZM14.9546 13.6396L15.04 13.7211C15.012 13.6814 15.0112 13.6746 15.0074 13.6712C15.0036 13.6676 14.9966 13.6675 14.9546 13.6396ZM14.8691 13.459C14.7542 13.4552 14.6627 13.4522 14.577 13.5036L14.6141 13.6241C14.6425 13.627 14.6662 13.63 14.6868 13.6326C14.7717 13.6435 14.8041 13.6477 14.9086 13.6078L14.9554 13.4611C14.9251 13.4609 14.8965 13.4599 14.8691 13.459ZM14.9546 14.518L14.8085 14.1879C14.6244 14.2339 14.5146 14.6044 14.6155 14.7369C14.6849 14.6915 14.7546 14.6468 14.8242 14.602C14.8677 14.574 14.9112 14.5461 14.9546 14.518ZM14.3877 13.0439L14.4352 13.0404L14.4501 12.9086L14.3877 13.0439ZM14.9546 13.0765L14.9791 13.0914L15.1439 13.0843L15.0652 12.9086L15.0378 12.9094L14.9546 13.0765ZM16.277 10.6533L16.2873 10.7149L16.3556 10.7107C16.382 10.6932 16.4088 10.6764 16.4357 10.6596C16.4459 10.6533 16.456 10.647 16.4662 10.6406L16.4439 10.5329C16.3586 10.5591 16.3267 10.5952 16.277 10.6533ZM16.1929 11.2268C16.2241 11.2076 16.2557 11.1881 16.277 11.1612L16.0922 10.3688L16.2102 10.5322L16.4647 10.3034L16.4654 10.3027C16.4227 10.2111 16.3687 10.197 16.3098 10.1816C16.2653 10.17 16.2181 10.1577 16.1708 10.1107C16.1197 10.06 16.1389 10.0094 16.1593 9.95567C16.1757 9.9127 16.1928 9.86769 16.1753 9.8189C16.0543 9.48174 15.4533 9.21187 15.1097 9.0702L14.9539 9.18637L15.6633 9.77428L16.0885 10.3636L16.1389 11.2632C16.1552 11.2501 16.174 11.2385 16.1929 11.2268ZM16.0885 10.3636L16.0877 10.3494L16.0922 10.3688L16.0885 10.3636ZM16.0877 12.5424C16.0729 12.3816 16.0551 12.32 15.9304 12.3866L15.7167 12.4858L15.71 12.5424H16.0877ZM15.8302 11.8122L15.7449 11.8816L15.71 11.9772L15.8674 11.9949L15.8993 11.9297L15.8302 11.8122ZM15.5134 12.5431L15.71 12.3661L15.4244 12.3604C15.4185 12.371 15.4127 12.3815 15.4069 12.3921C15.3821 12.437 15.3571 12.4823 15.3331 12.5276L15.385 12.5226L15.5134 12.5431ZM14.9584 12.2068C14.9523 12.2193 14.9477 12.2286 14.9977 12.2619L14.9606 12.1769C14.966 12.1914 14.9619 12.1996 14.9584 12.2068ZM14.9546 11.13L15.5928 11.4459C15.9282 10.7355 15.4867 9.9712 14.9947 9.8012C15.0305 10.159 14.9996 10.5511 14.9712 10.9132C14.9654 10.9869 14.9597 11.0593 14.9546 11.13ZM15.2773 11.5374C15.2425 11.5081 15.2063 11.4776 15.1439 11.4459C15.1562 11.5164 15.1532 11.5825 15.1499 11.6547C15.1456 11.7475 15.1409 11.8504 15.1676 11.9857L15.3991 11.9942C15.4128 11.9725 15.4257 11.9529 15.4376 11.9347C15.5049 11.8323 15.5418 11.7762 15.5097 11.6613C15.379 11.6229 15.3298 11.5815 15.2773 11.5374ZM15.1474 12.573C15.1411 12.5856 15.1365 12.5948 15.1869 12.6281L15.1498 12.5431C15.1552 12.5576 15.1511 12.5659 15.1474 12.573ZM16.4677 10.8347L16.4654 10.8687C16.4705 10.9026 16.4752 10.941 16.4802 10.9816C16.4944 11.0963 16.5106 11.2281 16.5418 11.3247C16.5167 11.3651 16.4911 11.4055 16.4655 11.4459L16.4654 11.4459L16.5129 11.4431L16.5491 11.3457C16.5657 11.391 16.5863 11.4265 16.6124 11.4459C16.6569 11.2136 16.668 10.9019 16.6383 10.7149L16.4677 10.8347ZM16.5491 11.3457L16.5797 11.2632C16.5672 11.2837 16.5546 11.3042 16.5418 11.3247C16.5441 11.3319 16.5466 11.3389 16.5491 11.3457ZM16.4535 9.55118C16.4513 9.54461 16.449 9.53801 16.4469 9.53132L16.2762 9.4357L16.4179 9.61845L16.4647 9.58586C16.4614 9.57414 16.4575 9.5627 16.4535 9.55118ZM16.2814 9.80403L16.2762 9.83591C16.3378 9.92232 16.3556 9.93436 16.4654 9.98395L16.323 9.8012C16.3091 9.80203 16.2952 9.80297 16.2814 9.80403ZM14.9287 11.4679L14.8708 11.4459L14.8003 11.526C14.7246 11.6443 14.7825 11.9163 14.8656 11.9751L14.9539 11.9949L14.9287 11.4679ZM14.5131 12.3604L14.4523 12.3625C14.4315 12.4226 14.4093 12.4828 14.3871 12.5429L14.387 12.5431L14.4797 12.5389L14.5762 12.5035L14.5131 12.3604ZM14.1985 15.0181L14.2801 15.2851L14.5732 14.9444C14.5742 14.9361 14.5754 14.9278 14.577 14.9196L14.5473 14.921C14.4308 14.9543 14.315 14.9862 14.1985 15.0181ZM14.0095 14.5534L14.082 14.5463L14.1985 14.4372L14.1837 14.3905L14.1317 14.3706C14.1266 14.3754 14.1218 14.38 14.1172 14.3843C14.0648 14.4332 14.0415 14.455 14.0095 14.5534ZM14.0093 14.6434L14.0983 14.7369L14.1495 14.7333L14.1985 14.5541L14.0093 14.6434ZM13.8368 15.5168C13.8578 15.5335 13.8782 15.5498 13.8995 15.5656L13.9752 15.6506L14.1985 15.5047L14.1703 15.2851L13.8787 15.5004L13.8208 15.504C13.8262 15.5083 13.8315 15.5125 13.8368 15.5168ZM12.132 16.7471L11.9613 16.7577C12.0117 16.9015 11.988 17.0871 11.9316 17.2698L12.6877 17.4788C12.5646 17.2075 12.3894 16.9121 12.132 16.7471ZM12.27 15.8333L11.4181 16.0678L11.3662 16.3044C11.4685 16.3391 11.551 16.3791 11.6295 16.4173C11.8138 16.5068 11.9762 16.5857 12.3234 16.5594C12.6023 16.4245 12.8798 16.3182 13.1444 16.2168C13.3133 16.152 13.477 16.0893 13.6323 16.0225L13.6086 15.958L12.27 15.8333ZM11.3655 16.9285L11.7231 17.1126C11.7573 16.9842 11.7417 16.9092 11.7198 16.8038C11.716 16.7859 11.7121 16.7671 11.7083 16.7471L11.3825 16.7705L11.3655 16.9285ZM11.1139 17.1487L10.987 17.2153L11.4871 17.2953L11.5539 17.233C11.5043 17.2177 11.4592 17.1955 11.4162 17.1743C11.3138 17.1239 11.2236 17.0794 11.1139 17.1487ZM11.2311 16.8767C11.2721 16.8947 11.3131 16.9124 11.3543 16.9298L11.3654 16.7584L11.1762 16.7471L11.2311 16.8767ZM10.9877 17.085L10.7985 16.9298L10.9558 17.2953C10.9637 17.2527 10.9698 17.2258 10.9746 17.2051C10.9839 17.1649 10.9877 17.1481 10.9877 17.085ZM10.8255 16.2009C10.6261 16.2025 10.4491 16.204 10.3088 16.2449L10.2323 16.3341L10.7406 16.3816L10.9877 16.1988C10.9323 16.2 10.8781 16.2005 10.8255 16.2009ZM11.9323 7.76829L11.7839 7.60749L11.7565 7.60962C11.3566 7.62522 10.9652 7.72538 10.6108 7.90287L10.6575 7.97299L10.6857 7.97158C10.9017 7.86462 11.2103 7.81999 11.5227 7.79449C11.6615 7.78316 11.8003 7.77537 11.9323 7.76829ZM13.389 8.06508L12.6885 7.97299C12.7305 8.04784 12.7566 8.14277 12.7835 8.24015C12.8103 8.33722 12.8377 8.43673 12.8821 8.52124L13.4439 8.06083L13.389 8.06508ZM13.5879 8.75489L13.4439 8.73374L13.6323 8.70399L13.5879 8.75489ZM13.6168 8.15574L13.4439 8.31795L13.5069 8.31228L13.6323 8.33849L13.6168 8.15574ZM13.7036 14.3706L13.7867 14.3671L13.8208 14.1886L13.6873 14.2382L13.6323 14.3069L13.7036 14.3706ZM13.7058 14.6249C13.6821 14.6504 13.6583 14.6759 13.6361 14.7014L13.6323 14.7369L13.8216 14.7206L13.7117 14.5541L13.7058 14.6249ZM13.4439 15.1505L13.5611 15.2851L13.6412 15.2794L13.8216 15.1024L13.4439 15.1505ZM13.2546 15.7901L13.6323 15.8333L13.5218 15.6506L13.2546 15.7901ZM13.4439 15.3871L13.3674 15.3177L13.2851 15.2851L12.877 15.4678L13.1701 15.4537L13.4439 15.3871ZM12.877 7.60749C12.7642 7.48354 12.5312 7.43041 12.3108 7.42474L12.382 7.50479C12.4354 7.59141 12.6115 7.59698 12.7589 7.60165C12.802 7.60301 12.8426 7.60429 12.877 7.60749ZM12.6284 8.52124C12.6477 8.35195 12.6098 8.2457 12.5022 8.15574C12.5028 8.18034 12.5018 8.2061 12.5009 8.23213C12.4965 8.35148 12.4919 8.47646 12.6284 8.52124ZM12.6944 9.27703L12.6877 9.3082C12.6917 9.31101 12.6956 9.31382 12.6995 9.31663C12.7713 9.36813 12.8393 9.41689 12.9801 9.4357C13.1515 9.32378 13.0706 9.19911 12.6944 9.27703ZM13.2546 14.025L13.1723 14.0051L13.1433 14.0073L13.0662 14.1879L13.2517 14.0505C13.2526 14.042 13.2536 14.0335 13.2546 14.025ZM13.2094 9.4357L13.0684 9.54691H13.0677L13.0662 9.57878L13.2546 9.61845L13.2094 9.4357ZM13.176 14.5484L13.6323 14.4344L13.6108 14.399L13.4505 14.3706C13.3496 14.4493 13.2398 14.5031 13.0691 14.5357C13.0677 14.5414 13.0662 14.5477 13.0662 14.5534L13.176 14.5484ZM13.2546 13.9039L13.3066 14.0051L13.3697 14.0002L13.4439 13.8529L13.3845 13.8224L13.2546 13.9039ZM12.3464 15.1024L12.1216 15.2695L12.1802 15.2653C12.2707 15.3666 12.4213 15.4402 12.5957 15.4678L13.0662 15.2086L13.0424 15.159L12.3464 15.1024ZM12.1208 15.4678L11.7721 15.2851C11.7452 15.2958 11.7183 15.3067 11.6916 15.3175C11.646 15.336 11.6005 15.3544 11.5546 15.3722L12.1208 15.4678ZM11.7416 15.7023L11.7439 15.6584H11.7431C11.7148 15.6577 11.6941 15.6552 11.6779 15.6532C11.6271 15.6469 11.6201 15.646 11.5576 15.725L11.5546 15.7689L11.634 15.759L11.7416 15.7023ZM10.7993 8.16424C10.8175 8.18227 10.8355 8.20045 10.8534 8.21878C10.8744 8.30464 10.8949 8.39058 10.915 8.47662C11.1336 8.45113 11.354 8.44354 11.5739 8.45395C11.7686 8.46208 11.9519 8.48221 12.138 8.50265C12.1952 8.50893 12.2527 8.51524 12.3108 8.52124L12.2188 7.97299C12.1957 7.97348 12.1714 7.97393 12.146 7.97441C11.9852 7.97743 11.781 7.98127 11.5739 7.99778C11.2831 8.01974 10.987 8.06649 10.7993 8.16424ZM11.177 15.6315L11.1309 15.5536L10.8393 15.4678C10.8182 15.497 10.7975 15.5236 10.7774 15.5495C10.712 15.6334 10.6533 15.7087 10.6108 15.8333L11.1324 15.7951L11.177 15.6315ZM9.85465 14.5541C9.9244 14.7411 10.2494 14.9069 10.4869 14.9196L10.6108 14.7376L9.85465 14.5541ZM10.6108 14.9196L10.7525 14.9097C10.7546 14.8917 10.7566 14.8739 10.7586 14.8561C10.763 14.8162 10.7674 14.7765 10.7725 14.7369L10.6152 14.8757L10.6108 14.9196ZM10.4631 8.15574L10.2331 8.22516L10.455 8.33849L10.6108 8.33283L10.4631 8.15574ZM10.2052 16.1569C10.2133 16.1289 10.2214 16.101 10.2301 16.0735L10.2331 16.0345L10.0439 16.0161C10.0759 16.077 10.1078 16.1379 10.1396 16.1988C10.1574 16.1967 10.1759 16.1946 10.1945 16.1939C10.1981 16.1816 10.2017 16.1692 10.2052 16.1569ZM10.7755 15.3701L10.3347 15.2851L10.0439 15.7753L10.4572 15.8333L10.7993 15.4268L10.7755 15.3701ZM13.7177 9.43641L13.6323 9.55611L13.7451 9.61845L14.01 9.52495L13.9863 9.49236L13.7488 9.4357L13.7177 9.43641ZM14.01 8.88745L14.1436 8.96537C14.1085 8.92624 14.1064 8.91687 14.1008 8.91332C14.0942 8.90923 14.0828 8.91288 14.01 8.88745ZM14.01 9.72753L14.1006 9.8012L14.1993 9.61845L14.01 9.72753ZM14.3039 11.1499L14.01 11.0804C14.041 11.1601 14.17 11.1976 14.2855 11.2312C14.3221 11.2419 14.3574 11.2521 14.3877 11.2632C14.3875 11.2604 14.3873 11.2578 14.387 11.2552C14.3811 11.1868 14.3804 11.1785 14.3039 11.1499ZM14.0798 10.5329L14.0397 10.5825L14.01 10.6795L14.1993 10.7149L14.0798 10.5329ZM10.2331 16.6451L10.2131 16.5969C10.1709 16.5904 10.1408 16.5828 10.1162 16.5766C10.0561 16.5615 10.0298 16.5549 9.94444 16.5927L9.85762 16.7223L9.85465 16.7471L9.97857 16.7379L10.2331 16.6451ZM9.84797 8.15574C9.87394 7.68612 9.8309 7.54162 9.66617 7.42404V7.42474C9.67359 7.74208 9.73963 8.02328 9.84797 8.15574ZM9.7744 7.06034L9.66691 7.19808L9.76115 7.1917L9.7744 7.06034ZM9.66042 7.29468C9.66226 7.27712 9.66409 7.25956 9.66617 7.242H9.66543L9.62091 7.24483L9.47695 7.34329L9.65133 7.37374C9.65489 7.34739 9.65765 7.32103 9.66042 7.29468ZM9.75967 16.9136L9.66617 17.8443L9.72554 17.8103L10.4216 16.7471L9.75967 16.9136ZM9.81458 15.2851L9.71292 15.3425L9.67508 15.3963C9.65578 15.5443 9.66395 15.5854 9.73667 15.6506C9.82423 15.5408 9.90733 15.3899 9.81458 15.2851ZM9.31667 14.9196L9.09926 15.2532V15.2539C9.13042 15.4232 9.19721 15.5585 9.30554 15.6506C9.33557 15.606 9.36564 15.5614 9.39572 15.5168C9.48604 15.3829 9.57636 15.249 9.66543 15.1151L9.31667 14.9196ZM9.44801 16.3816L9.09926 16.6848L9.62462 16.7471L9.62465 16.7469C9.63799 16.6584 9.65134 16.57 9.66617 16.4808L9.612 16.3958L9.44801 16.3816ZM8.53317 16.4368L8.59171 16.4333C8.67852 16.5056 8.78909 16.5481 8.9553 16.5643L9.28848 16.2881L9.26473 16.2463L8.94863 16.1988L8.53317 16.4368ZM8.62955 16.0161L8.47743 16.0834L8.15539 16.1563L8.28154 16.1988L8.72156 16.0593L8.69485 16.0296L8.62955 16.0161ZM8.07748 15.6548L7.96617 15.912L8.11384 16.0161L8.30157 16.0041L8.53234 15.8532L8.48782 15.788C8.43923 15.7687 8.40106 15.7459 8.3652 15.7245C8.28661 15.6776 8.21913 15.6373 8.07748 15.6548ZM7.75024 16.1542L7.27014 16.0161L7.02156 16.4241L7.46901 16.5643L7.77695 16.2088L7.75024 16.1542ZM6.07515 15.8023L6.06731 15.7087L5.89111 15.6508C5.89073 15.6505 5.89034 15.6502 5.88996 15.6499L5.88875 15.65L5.88848 15.6499L5.88853 15.65L5.83208 15.6541L5.69926 15.8071C5.72152 16.3589 5.99681 16.808 6.67652 16.74L7.02156 16.485L6.9993 16.4291C6.67173 16.3376 6.4246 16.1155 6.1874 15.9024C6.14983 15.8686 6.11251 15.8351 6.07515 15.8023ZM5.88853 15.65L5.92335 15.7214C5.95544 15.7453 5.98813 15.7686 6.02104 15.7921C6.03988 15.8055 6.05879 15.819 6.0777 15.8326L6.07515 15.8023C6.01429 15.7489 5.95335 15.6976 5.89111 15.6508L5.88875 15.65L5.88853 15.65ZM6.34333 13.807C6.34926 13.8117 6.35589 13.8165 6.36338 13.8217L6.62058 13.2761L6.62532 13.2734C6.67307 13.3538 6.72827 13.4188 6.78249 13.4827C6.88415 13.6026 6.98236 13.7183 7.02156 13.923L6.57337 14.3699C6.43401 14.2708 6.32738 14.1356 6.26617 13.9804L6.26691 13.9796L6.34333 13.807ZM6.27614 13.7074C6.29636 13.7552 6.30574 13.7774 6.34333 13.807L6.56447 13.3074L6.62058 13.2761L6.64387 13.2267L6.54666 13.0907L6.39603 13.2168L6.26691 13.6857C6.27027 13.6935 6.27331 13.7007 6.27614 13.7074ZM7.21152 14.1872L6.83309 14.5392C7.0223 14.5435 7.21078 14.5477 7.39926 14.5534L7.21152 14.1872ZM7.51232 11.289C7.60311 11.1513 7.6961 11.0102 7.77695 10.8453L7.70943 10.7142L7.65155 10.7461C7.61559 10.8304 7.55713 10.9303 7.49437 11.0376C7.34603 11.2912 7.17366 11.586 7.21746 11.8114C7.29552 11.6178 7.4023 11.4558 7.51232 11.289ZM8.44775 9.43499C8.24666 9.60499 8.05818 9.75657 7.77695 9.83945L8.29415 9.98324L8.53309 9.67866L8.44775 9.43499ZM8.61916 9.98324L8.72156 9.85857L8.70672 9.80049L8.53457 9.94924L8.53309 9.96907L8.61916 9.98324ZM8.60284 9.06949L8.57316 9.07091C8.51083 9.24586 8.50415 9.34857 8.67704 9.43499L8.72156 9.3082L8.60284 9.06949ZM8.71192 14.4896L8.53754 14.3699C8.53558 14.3848 8.53409 14.3996 8.53309 14.4146L8.71192 14.4896ZM8.72156 14.6306L8.53457 14.5534L8.15836 14.6412L8.15465 14.6639C8.15914 14.678 8.16329 14.6919 8.16736 14.7056C8.19424 14.7959 8.21802 14.8758 8.3179 14.9189L8.71859 14.6519C8.71946 14.6448 8.72045 14.6377 8.72156 14.6306ZM8.15539 14.2566L7.97582 14.1872L7.96617 14.3196L8.05893 14.3097L8.15539 14.2566ZM8.13108 10.5869C8.12082 10.5679 8.08324 10.5636 7.96617 10.5322C7.97101 10.541 7.97547 10.5492 7.97966 10.5569C8.02173 10.6344 8.03642 10.6614 8.1309 10.7142C8.12623 10.6357 8.14071 10.6048 8.13108 10.5869ZM7.98175 13.6389L7.96617 13.7969C8.02926 13.805 8.09234 13.8133 8.15539 13.8217C8.10048 13.7324 8.07006 13.6977 7.98175 13.6389ZM8.22895 11.6002C8.27995 11.5823 8.29219 11.5781 8.34461 11.5139L8.23776 11.4452L8.15539 11.628C8.18734 11.6147 8.21064 11.6066 8.22895 11.6002ZM8.22588 10.897L8.34461 10.7787L8.28673 10.7142L8.21624 10.7404C8.19967 10.7771 8.1829 10.8 8.17117 10.8159C8.14506 10.8515 8.14397 10.853 8.22588 10.897ZM8.15539 10.3487L8.32903 10.4677C8.29565 10.4209 8.28475 10.4026 8.26885 10.3913C8.25083 10.3785 8.22637 10.3747 8.15539 10.3487ZM7.96617 13.8217L8.15539 13.9655C8.05893 13.9634 8.00698 13.9435 7.96617 13.8217ZM8.45591 13.8217L8.53309 13.8146C8.51196 13.7733 8.49159 13.7316 8.47117 13.6898C8.4629 13.6728 8.45461 13.6559 8.44627 13.6389L8.34387 13.6489L8.38987 13.7055L8.45591 13.8217ZM8.42552 10.4267L8.34387 10.3494C8.38569 10.3772 8.39256 10.3774 8.39625 10.3809C8.39977 10.3843 8.4004 10.3907 8.42552 10.4267ZM8.34387 13.2494L8.44033 13.4406L8.53309 13.4562L8.40842 13.0907L8.38468 13.0921L8.34387 13.2494ZM7.96617 15.5918L7.94539 15.5677V15.5684L7.58848 15.4678C7.60425 15.5486 7.64087 15.6243 7.69503 15.6881C7.74919 15.7519 7.81918 15.8019 7.89865 15.8333L7.96617 15.5918ZM7.58848 15.9934L7.39926 15.8333C7.3136 15.479 6.91288 15.2682 6.56027 15.0827C6.45467 15.0271 6.35339 14.9738 6.26617 14.9196C6.56205 15.3061 6.95058 15.6195 7.39926 15.8333C7.4566 15.9382 7.46649 15.9423 7.56869 15.9851C7.57493 15.9877 7.58152 15.9905 7.58848 15.9934ZM7.74801 14.3706L7.72575 14.2127L7.58848 14.1879L7.74801 14.3706ZM7.39926 14.7369L7.53876 15.0676L7.7777 15.1024C7.69385 14.9777 7.56473 14.7971 7.39926 14.7369ZM7.73392 11.8122L7.68717 11.8136L7.67752 11.8532C7.60109 11.9064 7.57364 11.9496 7.5959 11.9949L7.73392 11.8122ZM7.55063 13.4569L7.58848 13.3846L7.54767 13.2741L7.39926 13.2897L7.4423 13.3769L7.55063 13.4569ZM7.39926 14.9196L7.24788 14.7425L7.02156 14.7369L7.39926 14.9196ZM8.34387 15.0089L8.63103 15.2851L8.91078 15.0549L8.84622 14.5541L8.34387 15.0089ZM8.9605 15.4714L8.91078 15.5904L9.09926 15.6506L9.02728 15.4678L8.9605 15.4714ZM9.09926 14.7369L9.1653 14.9196L9.23654 14.7609L9.09926 14.7369ZM8.91227 8.74791L8.91078 8.7642L8.96866 8.88674L9.09926 8.70399C9.03694 8.71957 8.97462 8.73374 8.91229 8.7479L8.91227 8.74791ZM6.83309 12.1776L7.00598 12.5431C7.00714 12.5276 7.00851 12.5122 7.00986 12.497C7.02311 12.3476 7.03447 12.2194 6.83309 12.1776ZM6.26617 12.1776C6.27879 12.4057 6.38193 12.6189 6.54369 12.7259L6.64461 12.6657C6.63663 12.6304 6.6299 12.5975 6.62363 12.5669C6.57861 12.347 6.55732 12.2429 6.26617 12.1776ZM6.6127 10.484C6.45836 10.6845 6.10738 11.5543 6.34854 11.7718L6.58747 11.8122C6.64164 11.2781 6.7945 10.7553 7.02156 10.3714L6.93178 10.3494C6.89951 10.3586 6.86912 10.3654 6.84042 10.3719C6.74899 10.3924 6.67483 10.4091 6.6127 10.484ZM6.11109 14.9217L5.99607 14.7369L5.8818 14.8006C5.69781 14.9021 5.60723 15.0955 5.51421 15.2941L5.51078 15.3014L5.83134 15.5819C5.88141 15.5963 5.93718 15.5838 5.99353 15.5712C6.06745 15.5546 6.14239 15.5378 6.20681 15.5812C6.27642 15.628 6.27424 15.6977 6.27184 15.7741C6.26992 15.8353 6.26787 15.9008 6.30253 15.9623L6.9852 16.3816L7.21004 16.0033C6.79747 15.7972 6.42348 15.4346 6.17861 15.0556C6.135 15.0896 6.10416 15.1202 6.07898 15.1452C6.03132 15.1924 6.00393 15.2196 5.94858 15.2121L6.00794 15.1519L6.11109 14.9217ZM5.45364 12.1798C5.40575 12.3579 5.36883 12.5386 5.34308 12.7209C5.29411 13.1013 5.32156 13.4562 5.54195 13.6347C5.5385 13.6144 5.53441 13.5922 5.53004 13.5685C5.49868 13.3983 5.45304 13.1506 5.52859 12.9859C5.49668 13.5681 5.71855 14.0009 6.0777 14.1879C5.9278 13.7941 5.77791 13.3995 5.62951 13.0043L5.57756 12.7209L5.47887 12.1776L5.45364 12.1798ZM4.95129 12.6891C4.9592 12.7652 4.98078 12.8395 5.0151 12.9086V12.9079L5.05072 12.6884L5.13309 12.1776L4.98691 12.3158L4.95426 12.3809C4.94171 12.4833 4.94072 12.5866 4.95129 12.6891ZM17.7877 14.5973L18.1654 14.7361L18.1543 14.5541L17.7877 14.5973ZM8.26892 17.6616L8.17023 17.7111L8.16949 17.7118L8.15465 17.8436L8.26892 17.6616ZM11.7157 5.59796L11.6363 5.58379L11.6422 5.54767L12.1052 5.52571L12.1216 5.41804C11.9138 5.40374 11.6986 5.43037 11.5924 5.53766L11.5999 5.52571C11.6386 5.46492 11.6774 5.40423 11.7164 5.34367C11.9309 5.25725 12.0629 5.20413 12.2922 5.24733C12.3412 5.39537 12.2863 5.55758 12.1898 5.71058L11.9674 5.77993L11.8344 5.763C11.8595 5.75673 11.8819 5.75563 11.8993 5.75477C11.937 5.75291 11.9517 5.75219 11.9212 5.70279C11.7602 5.71554 11.6726 5.69571 11.5999 5.63904C11.584 5.62595 11.5691 5.61174 11.5554 5.59654L11.5614 5.58704C11.5649 5.58687 11.5684 5.58669 11.572 5.5865C11.5844 5.58586 11.597 5.58521 11.6096 5.58521L11.7157 5.59796ZM11.9674 5.77993L11.9672 5.78H11.968L11.9674 5.77993ZM11.5614 5.58704C11.5591 5.58714 11.5569 5.58724 11.5546 5.58733C11.5649 5.56914 11.5776 5.55261 11.5924 5.53766L11.5614 5.58704ZM17.2216 7.46795L17.4605 7.42545L17.5993 7.49629C17.5533 7.68153 17.4564 7.7853 17.3502 7.89908C17.3276 7.92321 17.3047 7.94779 17.2817 7.9737L17.5369 7.52745L17.3685 7.45804L17.2216 7.46795ZM15.1439 16.8526L15.3323 16.7478H15.3331L15.2886 16.8399L15.1439 16.8526Z" fill="#616D8D"/>
</g>
<defs>
<clipPath id="clip0_230_6397">
<rect width="24" height="24" fill="white" transform="translate(0 0.5)"/>
</clipPath>
</defs>
</svg>
