<svg width="18" height="18" viewBox="0 0 18 18" fill="none" xmlns="http://www.w3.org/2000/svg">
<g clip-path="url(#clip0_338_11089)">
<path d="M16.9161 3.1004C17.3086 2.15022 16.2564 1.22946 15.1705 1.57375L1.8994 5.77362C0.80991 6.1187 0.678153 7.41954 1.68041 7.92762L5.91663 10.0737L9.69942 6.76355C9.87079 6.61871 10.1003 6.53857 10.3386 6.54038C10.5768 6.54219 10.8047 6.62582 10.9732 6.77324C11.1417 6.92066 11.2372 7.12009 11.2393 7.32857C11.2414 7.53705 11.1498 7.7379 10.9843 7.88787L7.20149 11.198L9.65489 14.9049C10.2346 15.7819 11.7212 15.6658 12.1156 14.7133L16.9161 3.1004Z" fill="white"/>
</g>
<defs>
<clipPath id="clip0_338_11089">
<rect width="18" height="18" fill="white"/>
</clipPath>
</defs>
</svg>
