<svg width="36" height="37" viewBox="0 0 36 37" fill="none" xmlns="http://www.w3.org/2000/svg">
<rect y="0.5" width="36" height="36" rx="10" fill="url(#paint0_linear_86_3027)"/>
<g clip-path="url(#clip0_86_3027)">
<path fill-rule="evenodd" clip-rule="evenodd" d="M24.4808 12.1917C24.6868 12.105 24.9122 12.0751 25.1336 12.1051C25.355 12.1351 25.5643 12.2239 25.7397 12.3622C25.9152 12.5006 26.0503 12.6834 26.1311 12.8917C26.2119 13.1 26.2354 13.3262 26.1992 13.5467L24.3092 25.0108C24.1258 26.1167 22.9125 26.7508 21.8983 26.2C21.05 25.7392 19.79 25.0292 18.6567 24.2883C18.09 23.9175 16.3542 22.73 16.5675 21.885C16.7508 21.1625 19.6675 18.4475 21.3342 16.8333C21.9883 16.1992 21.69 15.8333 20.9175 16.4167C18.9983 17.865 15.9192 20.0675 14.9008 20.6875C14.0025 21.2342 13.5342 21.3275 12.9742 21.2342C11.9525 21.0642 11.005 20.8008 10.2317 20.48C9.18667 20.0467 9.2375 18.61 10.2308 18.1917L24.4808 12.1917Z" fill="white"/>
</g>
<defs>
<linearGradient id="paint0_linear_86_3027" x1="-0.141732" y1="18.5" x2="35.8583" y2="18.5" gradientUnits="userSpaceOnUse">
<stop stop-color="#1C64F2"/>
<stop offset="1" stop-color="#D41CF2"/>
</linearGradient>
<clipPath id="clip0_86_3027">
<rect width="20" height="20" fill="white" transform="translate(8 8.5)"/>
</clipPath>
</defs>
</svg>
