<svg width="62" height="62" viewBox="0 0 62 62" fill="none" xmlns="http://www.w3.org/2000/svg">
<g clip-path="url(#clip0_465_10910)">
<path d="M26.4544 0.842046L31 0.501402L35.5456 0.842047L39.9896 1.85637L44.2328 3.52171L48.1805 5.80088L51.7443 8.64294L54.8448 11.9844L57.4126 15.7507L59.3903 19.8576L60.7339 24.2134L61.4133 28.7208V33.2792L60.7339 37.7866L59.3903 42.1424L57.4126 46.2493L54.8448 50.0156L51.7443 53.3571L48.1805 56.1991L44.2328 58.4783L39.9896 60.1436L35.5456 61.158L31 61.4986L26.4544 61.158L22.0104 60.1436L17.7672 58.4783L13.8195 56.1991L10.2557 53.3571L7.15523 50.0156L4.58744 46.2493L2.60966 42.1424L1.26607 37.7866L0.586681 33.2792V28.7208L1.26607 24.2134L2.60965 19.8576L4.58744 15.7507L7.15524 11.9844L10.2557 8.64295L13.8195 5.80088L17.7672 3.52171L22.0104 1.85637L26.4544 0.842046Z" fill="url(#paint0_linear_465_10910)" stroke="#222B44"/>
<mask id="mask0_465_10910" style="mask-type:alpha" maskUnits="userSpaceOnUse" x="0" y="0" width="62" height="62">
<path d="M26.4544 0.842046L31 0.501402L35.5456 0.842047L39.9896 1.85637L44.2328 3.52171L48.1805 5.80088L51.7443 8.64294L54.8448 11.9844L57.4126 15.7507L59.3903 19.8576L60.7339 24.2134L61.4133 28.7208V33.2792L60.7339 37.7866L59.3903 42.1424L57.4126 46.2493L54.8448 50.0156L51.7443 53.3571L48.1805 56.1991L44.2328 58.4783L39.9896 60.1436L35.5456 61.158L31 61.4986L26.4544 61.158L22.0104 60.1436L17.7672 58.4783L13.8195 56.1991L10.2557 53.3571L7.15523 50.0156L4.58744 46.2493L2.60966 42.1424L1.26607 37.7866L0.586681 33.2792V28.7208L1.26607 24.2134L2.60965 19.8576L4.58744 15.7507L7.15524 11.9844L10.2557 8.64295L13.8195 5.80088L17.7672 3.52171L22.0104 1.85637L26.4544 0.842046Z" fill="#121825" stroke="#222B44"/>
</mask>
<g mask="url(#mask0_465_10910)">
<path d="M43.5963 29.6114V25.7287C43.5963 25.0365 43.3013 24.3726 42.7763 23.8831C42.2513 23.3936 41.5392 23.1186 40.7967 23.1186H32.3979V21.4063C32.8248 21.0487 33.0978 20.5345 33.0978 19.9576C33.0978 19.4384 32.8765 18.9405 32.4828 18.5734C32.089 18.2063 31.5549 18 30.998 18C30.4412 18 29.9071 18.2063 29.5133 18.5734C29.1196 18.9405 28.8983 19.4384 28.8983 19.9576C28.8983 20.5345 29.1713 21.0487 29.5982 21.4063V23.1186H21.1994C20.4569 23.1186 19.7448 23.3936 19.2198 23.8831C18.6948 24.3726 18.3998 25.0365 18.3998 25.7287V29.6414L18.299 29.6479C17.9461 29.6714 17.6159 29.8187 17.3748 30.0601C17.1337 30.3016 16.9998 30.6192 17 30.9491V33.5593C17 33.9054 17.1475 34.2374 17.41 34.4821C17.6725 34.7269 18.0286 34.8644 18.3998 34.8644V41.3898C18.3998 42.0821 18.6948 42.746 19.2198 43.2355C19.7448 43.725 20.4569 44 21.1994 44H40.7967C41.5392 44 42.2513 43.725 42.7763 43.2355C43.3013 42.746 43.5963 42.0821 43.5963 41.3898V34.8644C43.9675 34.8644 44.3236 34.7269 44.5861 34.4821C44.8486 34.2374 44.9961 33.9054 44.9961 33.5593V31.03C45.0123 30.8275 44.9778 30.6242 44.8953 30.4362C44.6125 29.7993 44.0064 29.6466 43.5963 29.6114ZM23.999 30.9491C23.999 29.5083 24.9397 28.3389 26.0987 28.3389C27.2578 28.3389 28.1984 29.5083 28.1984 30.9491C28.1984 32.3899 27.2578 33.5593 26.0987 33.5593C24.9397 33.5593 23.999 32.3899 23.999 30.9491ZM36.5945 38.7796C35.1933 38.7757 25.3988 38.7796 25.3988 38.7796V36.1695C25.3988 36.1695 35.1989 36.1669 36.6001 36.1695L36.5945 38.7796ZM35.8974 33.5593C34.7383 33.5593 33.7977 32.3899 33.7977 30.9491C33.7977 29.5083 34.7383 28.3389 35.8974 28.3389C37.0564 28.3389 37.9971 29.5083 37.9971 30.9491C37.9971 32.3899 37.0564 33.5593 35.8974 33.5593Z" fill="white"/>
<g filter="url(#filter0_f_465_10910)">
<path d="M34 62.644C34 78.018 23.9787 85 -15.0196 85C-54.0179 85 -89 69.3565 -89 53.9826C-89 38.6087 -43.4983 41 -4.5 41C22.5 53.9826 34 62.644 34 62.644Z" fill="#017BFF"/>
</g>
<g filter="url(#filter1_f_465_10910)">
<path d="M53.8419 -14.9509C71.7212 -17.1489 78.7962 -16.7674 80.2688 -4.84101C74.6867 6.85806 77.3793 14.8019 59.5 17C55.6111 -1.63417 20.4821 5.16153 20 -1.5C18.5274 -13.4263 53.8419 -14.9509 53.8419 -14.9509Z" fill="#DB01FF"/>
</g>
</g>
</g>
<defs>
<filter id="filter0_f_465_10910" x="-105" y="24.8654" width="155" height="76.1346" filterUnits="userSpaceOnUse" color-interpolation-filters="sRGB">
<feFlood flood-opacity="0" result="BackgroundImageFix"/>
<feBlend mode="normal" in="SourceGraphic" in2="BackgroundImageFix" result="shape"/>
<feGaussianBlur stdDeviation="8" result="effect1_foregroundBlur_465_10910"/>
</filter>
<filter id="filter1_f_465_10910" x="3.9552" y="-31.9941" width="92.3136" height="64.9941" filterUnits="userSpaceOnUse" color-interpolation-filters="sRGB">
<feFlood flood-opacity="0" result="BackgroundImageFix"/>
<feBlend mode="normal" in="SourceGraphic" in2="BackgroundImageFix" result="shape"/>
<feGaussianBlur stdDeviation="8" result="effect1_foregroundBlur_465_10910"/>
</filter>
<linearGradient id="paint0_linear_465_10910" x1="31" y1="0" x2="31" y2="62" gradientUnits="userSpaceOnUse">
<stop offset="0.15256" stop-color="#121825"/>
<stop offset="1" stop-color="#051744"/>
</linearGradient>
<clipPath id="clip0_465_10910">
<rect width="62" height="62" fill="white"/>
</clipPath>
</defs>
</svg>
